<svg width="24" height="24" viewBox="0 0 24 24" fill="none" xmlns="http://www.w3.org/2000/svg">
<g clip-path="url(#clip0_248_1346)">
<path d="M12 3.2V1M12 23V20.8M3.2 12H1M23 12H20.8M5.774 18.226L4.223 19.777M19.777 4.223L18.226 5.774M18.226 18.226L19.777 19.777M4.223 4.223L5.774 5.774" stroke="#D4AF3A" stroke-width="2" stroke-miterlimit="10" stroke-linecap="round"/>
<path d="M12 17C13.3261 17 14.5979 16.4732 15.5355 15.5355C16.4732 14.5979 17 13.3261 17 12C17 10.6739 16.4732 9.40215 15.5355 8.46447C14.5979 7.52678 13.3261 7 12 7C10.6739 7 9.40215 7.52678 8.46447 8.46447C7.52678 9.40215 7 10.6739 7 12C7 13.3261 7.52678 14.5979 8.46447 15.5355C9.40215 16.4732 10.6739 17 12 17Z" fill="#D4AF3A" stroke="#D4AF3A" stroke-miterlimit="10"/>
</g>
<defs>
<clipPath id="clip0_248_1346">
<rect width="24" height="24" fill="white"/>
</clipPath>
</defs>
</svg>
