<svg width="24" height="24" viewBox="0 0 24 24" fill="none" xmlns="http://www.w3.org/2000/svg">
<path fill-rule="evenodd" clip-rule="evenodd" d="M0 0H24V24H0V0Z" fill="#E30A17"/>
<path fill-rule="evenodd" clip-rule="evenodd" d="M16.35 12.375C16.35 15.6844 13.6171 18.3703 10.2515 18.3703C6.88589 18.3703 4.15308 15.6844 4.15308 12.3703C4.15308 9.05626 6.8812 6.3797 10.2468 6.3797C13.6125 6.3797 16.3546 9.06095 16.3546 12.375H16.35Z" fill="white"/>
<path fill-rule="evenodd" clip-rule="evenodd" d="M16.6547 12.375C16.6547 15.0234 14.4703 17.1703 11.775 17.1703C9.07971 17.1703 6.90002 15.0234 6.90002 12.375C6.90002 9.72656 9.07971 7.57968 11.775 7.57968C14.4703 7.57968 16.65 9.72656 16.65 12.375H16.6547Z" fill="#E30A17"/>
<path fill-rule="evenodd" clip-rule="evenodd" d="M17.536 9.57187L17.4891 11.7891L15.4172 12.3516L17.4563 13.0781L17.4094 15.1078L18.736 13.5234L20.7469 14.2172L19.5844 12.5156L21 10.8234L18.825 11.4234L17.536 9.57187Z" fill="white"/>
</svg>
