<svg width="24" height="24" viewBox="0 0 24 24" fill="none" xmlns="http://www.w3.org/2000/svg">
<path fill-rule="evenodd" clip-rule="evenodd" d="M0 12C0 5.37258 5.37258 0 12 0V0C18.6274 0 24 5.37258 24 12V12C24 18.6274 18.6274 24 12 24V24C5.37258 24 0 18.6274 0 12V12Z" fill="#E30A17"/>
<path fill-rule="evenodd" clip-rule="evenodd" d="M16.3524 12.375C16.3511 12.375 16.35 12.376 16.35 12.3773C16.3487 15.6856 13.6164 18.3703 10.2516 18.3703C6.88595 18.3703 4.15314 15.6843 4.15314 12.3703C4.15314 9.0562 6.88126 6.37964 10.2469 6.37964C13.6117 6.37964 16.3534 9.05962 16.3547 12.3726C16.3547 12.3739 16.3536 12.375 16.3524 12.375V12.375Z" fill="white"/>
<path fill-rule="evenodd" clip-rule="evenodd" d="M16.6524 12.375C16.6537 12.375 16.6547 12.3761 16.6547 12.3774C16.6534 15.0247 14.4695 17.1703 11.775 17.1703C9.07971 17.1703 6.90002 15.0235 6.90002 12.375C6.90002 9.72659 9.07971 7.57971 11.775 7.57971C14.4695 7.57971 16.6487 9.72531 16.65 12.3727C16.65 12.374 16.6511 12.375 16.6524 12.375V12.375Z" fill="#E30A17"/>
<path fill-rule="evenodd" clip-rule="evenodd" d="M18.5549 11.0356C18.2338 10.5743 17.5101 10.7931 17.4982 11.355L17.4977 11.3814C17.4926 11.6231 17.3289 11.8326 17.0956 11.8959V11.8959C16.5804 12.0358 16.5526 12.7562 17.0554 12.9353L17.0797 12.944C17.3044 13.0241 17.4525 13.2413 17.447 13.4798V13.4798C17.4346 14.0164 18.1048 14.2772 18.4494 13.8657L18.4825 13.8262C18.6351 13.6439 18.8844 13.5747 19.1091 13.6522L19.1891 13.6798C19.6857 13.8511 20.1136 13.2903 19.8173 12.8566V12.8566C19.6795 12.6549 19.6936 12.385 19.8503 12.1977V12.1977C20.2008 11.7788 19.8061 11.1528 19.2796 11.298L19.2185 11.3149C18.9827 11.38 18.7315 11.2892 18.5918 11.0885L18.5549 11.0356Z" fill="white"/>
</svg>
