<svg width="24" height="24" viewBox="0 0 24 24" fill="none" xmlns="http://www.w3.org/2000/svg">
<g filter="url(#filter0_i_223_1988)">
<g clip-path="url(#clip0_223_1988)">
<path d="M8.00003 23.32V17.8L3.88 20.84C5.04 21.92 6.44001 22.76 8.00003 23.32Z" fill="#0052B4"/>
<path d="M16 23.32C17.56 22.76 18.96 21.92 20.12 20.84L16 17.76V23.32Z" fill="#0052B4"/>
<path d="M0.680054 16C0.800054 16.4 0.960054 16.76 1.16005 17.16L2.72005 16H0.680054Z" fill="#0052B4"/>
<path d="M21.2799 16L22.8399 17.16C22.9999 16.8 23.1599 16.4 23.3199 16H21.2799Z" fill="#0052B4"/>
<path d="M8.60011 14.4H0.240112C0.360112 14.96 0.520112 15.48 0.680114 16H2.72011L1.16011 17.16C1.48011 17.84 1.84011 18.44 2.28011 19.04L6.40011 16H8.00011V16.8L3.32011 20.24L3.88011 20.8L8.00011 17.8V23.32C8.52011 23.52 9.04011 23.64 9.60011 23.76V14.4H8.60011Z" fill="white"/>
<path d="M23.76 14.4H14.4V23.76C14.96 23.64 15.48 23.48 16 23.32V17.8L20.12 20.8C20.68 20.28 21.16 19.72 21.64 19.12L17.36 16H20.08L22.52 17.8C22.64 17.6 22.76 17.36 22.84 17.16L21.28 16H23.32C23.48 15.48 23.64 14.96 23.76 14.4Z" fill="white"/>
<path d="M2.27991 19.04C2.59991 19.48 2.91991 19.88 3.27991 20.28L7.99989 16.84V16.04H6.39991L2.27991 19.04Z" fill="#D80027"/>
<path d="M17.3999 16L21.6799 19.12C21.8399 18.92 21.9599 18.72 22.1199 18.52C22.1599 18.48 22.1599 18.44 22.1999 18.44C22.3199 18.24 22.4799 18 22.5999 17.8L20.0799 16H17.3999Z" fill="#D80027"/>
<path d="M16 0.679993V6.19999L20.12 3.15999C18.96 2.07999 17.56 1.23999 16 0.679993Z" fill="#0052B4"/>
<path d="M8.00003 0.679993C6.44001 1.23999 5.04 2.07999 3.88 3.15999L8.00003 6.23999V0.679993Z" fill="#0052B4"/>
<path d="M23.3199 8C23.1999 7.6 23.0399 7.24 22.8399 6.84L21.2799 8H23.3199Z" fill="#0052B4"/>
<path d="M2.72005 8L1.16005 6.84C1.00005 7.24 0.840054 7.6 0.680054 8H2.72005Z" fill="#0052B4"/>
<path d="M15.4 9.60001H23.72C23.6 9.04001 23.44 8.52001 23.28 8.00001H21.24L22.8 6.84001C22.48 6.16001 22.12 5.56001 21.68 4.96001L17.6 8.00001H16V7.20001L20.68 3.76001L20.12 3.20001L16 6.20001V0.680007C15.48 0.480005 14.96 0.360005 14.4 0.240005V9.60001H15.4Z" fill="white"/>
<path d="M0.240112 9.60001H9.60011V0.240005C9.04011 0.360005 8.52011 0.520005 8.00011 0.680007V6.20001L3.88011 3.20001C3.32011 3.72001 2.84011 4.28001 2.36011 4.88001L6.64011 8.00001H3.92011L1.48011 6.20001C1.36011 6.40001 1.24011 6.64001 1.16011 6.84001L2.72011 8.00001H0.680114C0.520112 8.52001 0.360112 9.04001 0.240112 9.60001Z" fill="white"/>
<path d="M21.72 4.96C21.4 4.52 21.08 4.12 20.72 3.72L16 7.16V7.96H17.6L21.72 4.96Z" fill="#D80027"/>
<path d="M6.59994 8L2.35994 4.88C2.19994 5.08 2.07994 5.28 1.91994 5.48C1.87994 5.52 1.87994 5.56 1.83994 5.56C1.71994 5.76 1.55994 6 1.43994 6.2L3.87994 8H6.59994Z" fill="#D80027"/>
<path d="M23.76 9.6H14.4V0.24C13.64 0.08 12.84 0 12 0C11.16 0 10.36 0.08 9.6 0.24V9.6H0.24C0.08 10.36 0 11.16 0 12C0 12.84 0.08 13.64 0.24 14.4H9.6V23.76C10.36 23.92 11.16 24 12 24C12.84 24 13.64 23.92 14.4 23.76V14.4H23.76C23.92 13.64 24 12.84 24 12C24 11.16 23.92 10.36 23.76 9.6Z" fill="#D80027"/>
</g>
</g>
<defs>
<filter id="filter0_i_223_1988" x="0" y="0" width="24" height="28" filterUnits="userSpaceOnUse" color-interpolation-filters="sRGB">
<feFlood flood-opacity="0" result="BackgroundImageFix"/>
<feBlend mode="normal" in="SourceGraphic" in2="BackgroundImageFix" result="shape"/>
<feColorMatrix in="SourceAlpha" type="matrix" values="0 0 0 0 0 0 0 0 0 0 0 0 0 0 0 0 0 0 127 0" result="hardAlpha"/>
<feOffset dy="4"/>
<feGaussianBlur stdDeviation="2"/>
<feComposite in2="hardAlpha" operator="arithmetic" k2="-1" k3="1"/>
<feColorMatrix type="matrix" values="0 0 0 0 0 0 0 0 0 0 0 0 0 0 0 0 0 0 0.25 0"/>
<feBlend mode="normal" in2="shape" result="effect1_innerShadow_223_1988"/>
</filter>
<clipPath id="clip0_223_1988">
<rect width="24" height="24" fill="white"/>
</clipPath>
</defs>
</svg>
