<svg width="36" height="36" viewBox="0 0 36 36" fill="none" xmlns="http://www.w3.org/2000/svg">
<circle cx="18" cy="18" r="18" fill="#2A2F4F"/>
<g clip-path="url(#clip0_248_846)">
<path d="M18.0142 8H17.9857C14.5317 8 11.7218 10.809 11.7218 14.2616C11.7218 16.5248 12.7525 19.5117 14.7853 23.1394C16.2923 25.8289 17.8205 27.8888 17.8359 27.9092C17.8784 27.9664 17.9454 28 18.0165 28C18.0185 28 18.0206 28 18.0226 28C18.0959 27.9979 18.1635 27.9604 18.2042 27.8993C18.2193 27.8765 19.7366 25.5852 21.2334 22.7826C23.2538 19 24.2782 16.1331 24.2782 14.2616C24.2781 10.8089 21.4681 8 18.0142 8ZM20.9056 14.4146C20.9056 16.0168 19.6021 17.3202 17.9999 17.3202C16.3977 17.3202 15.0943 16.0168 15.0943 14.4146C15.0943 12.8125 16.3977 11.509 17.9999 11.509C19.6021 11.509 20.9056 12.8125 20.9056 14.4146Z" fill="#C5AD7F"/>
<circle cx="18" cy="14.6666" r="3.33333" fill="#2A2F4F"/>
</g>
<defs>
<clipPath id="clip0_248_846">
<rect width="20" height="20" fill="white" transform="translate(8 8)"/>
</clipPath>
</defs>
</svg>
