<svg width="24" height="24" viewBox="0 0 24 24" fill="none" xmlns="http://www.w3.org/2000/svg">
<g clip-path="url(#clip0_2102_1289)">
<path d="M9.387 3.38175C9.00916 4.62378 8.90449 5.93284 9.08018 7.21913C9.25587 8.50541 9.70776 9.73846 10.4048 10.8337C11.1019 11.9289 12.0277 12.8603 13.1186 13.5641C14.2095 14.2678 15.4398 14.7272 16.725 14.9108C17.1474 14.9699 17.5734 14.9997 18 15C18.8867 15.0013 19.7688 14.8714 20.6175 14.6145C20.1055 16.2711 19.1296 17.7463 17.8054 18.8656C16.4811 19.9849 14.864 20.7013 13.1453 20.9302C12.7653 20.9765 12.3828 20.9998 12 21C9.83846 21.0047 7.74742 20.2313 6.10915 18.8212C4.47088 17.4112 3.39483 15.4585 3.07772 13.3204C2.7606 11.1822 3.22361 9.00136 4.38209 7.17647C5.54057 5.35159 7.31713 4.0046 9.387 3.38175ZM12 0C11.4451 0.000262682 10.8909 0.0378475 10.341 0.1125C7.32742 0.528049 4.58414 2.07264 2.66606 4.43385C0.747972 6.79506 -0.201737 9.79663 0.0090305 12.8314C0.219798 15.8662 1.57531 18.7077 3.80138 20.7811C6.02745 22.8545 8.95791 24.005 12 24C12.5039 23.9999 13.0073 23.9691 13.5075 23.9078C16.1214 23.5722 18.5528 22.3877 20.4281 20.5361C22.3033 18.6845 23.5187 16.2684 23.8875 13.659C23.964 13.0953 24.0016 12.5269 24 11.958C23.9988 11.7633 23.9588 11.5709 23.8824 11.3918C23.8061 11.2127 23.6949 11.0506 23.5553 10.9149C23.4157 10.7792 23.2505 10.6727 23.0693 10.6014C22.8882 10.5302 22.6946 10.4957 22.5 10.5C22.167 10.5004 21.8433 10.6092 21.5775 10.8098C20.5453 11.5834 19.2899 12.0011 18 12C17.7115 11.9999 17.4233 11.9798 17.1375 11.94C16.1081 11.7917 15.135 11.3783 14.3138 10.7403C13.4925 10.1023 12.8512 9.26168 12.453 8.30096C12.0548 7.34023 11.9133 6.29246 12.0425 5.26053C12.1716 4.2286 12.5669 3.24799 13.1895 2.415C13.342 2.19159 13.4332 1.93214 13.4542 1.66248C13.4752 1.39282 13.4251 1.12237 13.309 0.878078C13.193 0.633781 13.0149 0.424162 12.7926 0.270101C12.5703 0.11604 12.3115 0.0229141 12.042 0L12 0Z" fill="#C5AD7F"/>
</g>
<defs>
<clipPath id="clip0_2102_1289">
<rect width="24" height="24" fill="white"/>
</clipPath>
</defs>
</svg>
