<svg width="64" height="64" viewBox="0 0 64 64" fill="none" xmlns="http://www.w3.org/2000/svg">
<circle cx="32" cy="32" r="32" fill="#F4F4F4"/>
<path d="M0 32C0 49.5826 14.2535 64 31.8361 64C49.5092 64 64 49.6731 64 32C64 14.3269 49.6653 0 31.9922 0C14.3234 0 0 14.3312 0 32ZM35.2546 3.39512C36.6751 3.54341 37.9707 3.80097 39.641 4.26146C43.1532 5.23707 45.5337 6.31415 48.3668 8.21073C51.2702 10.1463 54.2049 13.12 56.2419 16.1951C58.1854 19.1298 59.5122 22.2673 60.3239 25.8341C61.0732 29.1434 61.2058 32.0546 60.7454 35.6293C60.2615 39.4615 58.958 43.1688 56.999 46.2985C55.5629 48.5932 53.9707 50.5756 52.0663 52.441C49.8732 54.5873 47.8907 56.0078 45.1668 57.3893C42.3024 58.841 39.7893 59.6293 36.3161 60.1678C31.9063 60.8546 27.2156 60.4176 22.4312 58.8722C21.2371 58.4898 21.1824 58.4507 20.8234 57.7171C20.5112 57.0693 20.5268 57.0146 20.9717 57.241C22.0254 57.7717 24.5541 58.5288 26.4507 58.88C29.0341 59.3639 29.7834 59.4341 32.0702 59.4263C34.0527 59.4263 34.3415 59.4029 35.8946 59.1766C37.76 58.9034 40.4449 58.2634 41.7093 57.7951C43.8166 57.0068 46.3298 55.6644 48.2576 54.2907C49.2019 53.6117 50.2088 52.7532 51.3717 51.6449C52.3161 50.7473 52.3785 50.6693 52.4488 50.3024C52.4956 50.0605 52.5034 47.8283 52.4722 44.4332C52.4254 39.4615 52.4332 38.9229 52.5502 38.681C52.6205 38.5327 52.761 38.2283 52.8624 38.0098C53.0498 37.6117 53.0498 37.6039 53.159 37.7834C53.2371 37.9395 53.2605 39.0634 53.2683 43.6839C53.2683 45.0546 53.2727 46.3215 53.2803 47.3168C53.2912 48.7391 55.3269 48.9933 54.5951 47.7737C54.5639 47.7346 54.5951 47.68 54.642 47.6566C54.6966 47.6332 54.6654 47.6332 54.5717 47.6566C54.4837 47.6766 54.3998 47.6098 54.3997 47.5195L54.3922 43.4419C54.3922 41.0224 54.4234 39.1805 54.4624 39.1805C54.4937 39.1805 54.6966 39.2585 54.8995 39.3444C55.1265 39.4437 55.2717 39.6695 55.2679 39.9172L55.2195 43.1063C55.1649 46.4624 55.1493 46.72 55.0088 46.9151C54.9307 47.0244 54.8293 47.2117 54.7902 47.3288C54.7122 47.5161 54.72 47.5239 54.8683 47.4302C55.2195 47.2117 56.6556 44.9093 57.3658 43.4341C58.2478 41.5922 59.1298 38.9932 59.5434 37.0029C59.8868 35.3873 59.6605 34.279 58.8019 33.4361C58.201 32.8429 57.7093 32.6634 56.8585 32.718C55.641 32.7961 54.7278 33.5454 54.4312 34.7161C53.9941 36.4098 55.5395 37.9239 57.2176 37.4634C57.6312 37.3463 58.2088 36.9327 58.5054 36.5424L58.6306 36.3793C58.6885 36.3038 58.8068 36.3209 58.841 36.4098C58.9737 36.7532 58.9268 37.0263 58.6927 37.3932C58.2556 38.0878 57.2332 38.5249 56.2654 38.439C55.4459 38.361 55.0634 38.1971 54.5483 37.721C53.721 36.9561 53.3385 35.8712 53.5258 34.8176C53.7444 33.6156 54.4078 32.7415 55.5239 32.1873C56.1405 31.8829 56.1405 31.8829 57.0771 31.8829C57.8654 31.8907 58.0917 31.9141 58.4507 32.0624C59.1766 32.359 59.8556 32.9522 60.2927 33.6859C60.3601 33.7917 60.4574 33.7255 60.4276 33.6036C60.3853 33.4303 60.2799 33.1776 60.1678 33.0146C60.0585 32.8585 60.0195 32.5541 59.9805 31.4537C59.8478 28.16 59.4263 25.8341 58.4429 22.9854C57.3971 19.9337 56.0468 17.4751 53.9707 14.8293C52.8624 13.4166 50.8176 11.3717 49.358 10.2166C47.9766 9.1239 45.799 7.75805 44.2068 7.00098C41.5141 5.71317 38.0254 4.72976 34.88 4.37854C30.8293 3.91805 26.3649 4.52683 22.2361 6.10341C20.6517 6.70439 20.238 6.89171 19.1141 7.46927C15.001 9.61561 11.4185 12.9015 8.60878 17.1317C6.36097 20.5034 5.1278 23.8127 4.39415 28.4098C4.3161 28.9093 4.25366 29.9083 4.23024 30.9463C4.19902 32.242 4.1678 32.7024 4.08195 32.8351C3.91805 33.0927 3.69171 33.7093 3.62927 34.0683C3.55902 34.4663 3.66829 34.3571 3.85561 33.8341C4.10537 33.1707 5.02634 32.3356 5.85366 32.0312C6.04097 31.961 6.47805 31.8907 6.82146 31.8673C7.97658 31.7893 8.82732 32.0937 9.63902 32.8663C10.0605 33.2722 10.1698 33.4439 10.3805 33.9746C10.6849 34.7629 10.7473 35.4576 10.5756 36.1132C10.318 37.1434 9.78732 37.8224 8.92878 38.2205C8.52293 38.4078 8.36683 38.439 7.71902 38.439C6.83707 38.439 6.32975 38.2907 5.85366 37.8849C5.46341 37.5493 5.29951 37.2527 5.29951 36.9015C5.30732 36.6283 5.51805 36.0741 5.52585 36.3083C5.53366 36.3785 5.68976 36.5971 5.88488 36.8C7.06341 38.0019 8.81951 37.7288 9.63902 36.2146C9.7561 36.0039 9.78732 35.7776 9.78732 35.2C9.78732 34.5366 9.7639 34.4195 9.57658 34.0995C9.31122 33.6468 8.74146 33.1239 8.28097 32.9132C7.75805 32.6712 6.58732 32.6712 6.08 32.9054C5.68976 33.0927 5.23707 33.5063 4.94829 33.9356C4.33171 34.8722 4.40976 36.6517 5.19024 39.2195C6.36097 43.0673 7.81268 45.8146 10.4429 49.1239C12.0507 51.1454 14.0488 52.9873 16.398 54.6263C17.2566 55.2195 17.3112 55.282 17.4361 55.6566C17.5141 55.8751 17.7171 56.2654 17.8966 56.5307L17.9884 56.6696C18.0419 56.7505 17.9477 56.8473 17.8654 56.7961C14.3844 54.5951 12.722 53.2605 10.7395 51.0595C7.32098 47.2742 5.14341 43.2859 3.97268 38.6341C3.30146 35.9493 2.99707 32.3356 3.22341 29.721C3.59805 25.4517 4.87024 21.3385 6.83707 18.0059C9.77171 13.0341 14.0644 8.84293 18.5522 6.5639C22.1815 4.72976 26.24 3.55902 29.9239 3.28585C31.1727 3.19219 33.8419 3.24683 35.2546 3.39512ZM29.0185 6.18927C29.1278 6.17366 29.1902 6.18146 29.1668 6.20488C29.12 6.25171 28.5112 6.42341 27.0907 6.79805C25.319 7.26634 22.6498 8.24195 20.9327 9.06146C20.0117 9.49073 18.2712 10.4741 17.8654 10.7863C17.7327 10.8956 17.6 10.9268 17.3971 10.8956C17.1395 10.8488 17.1083 10.8644 16.9132 11.1922C16.8039 11.3795 16.6088 11.6059 16.4917 11.6839C16.0937 11.9415 13.1512 14.9307 12.3551 15.8829C11.4263 16.999 10.638 18.1073 10.0371 19.122C9.20975 20.5346 9.20195 20.5346 8.97561 20.5112C8.61658 20.4722 8.66341 20.16 9.19414 19.1532C10.1541 17.3346 11.9102 15.0712 13.8459 13.1668C15.1727 11.8556 15.719 11.4341 16.6322 11.0361C16.8117 10.958 16.9678 10.8098 17.038 10.6615C17.1005 10.5288 17.2332 10.3415 17.3346 10.2478C17.7171 9.88878 18.9815 9.16293 20.558 8.39024C22.9854 7.1961 25.3424 6.43122 27.1141 6.25171C28.3629 6.12683 28.5034 6.11902 28.6751 6.17366C28.761 6.19707 28.9171 6.21268 29.0185 6.18927ZM38.0019 6.32195C38.4234 6.4078 38.8527 6.51707 38.9541 6.5561C39.1102 6.62634 39.1102 6.63415 38.8995 6.58732C38.7746 6.5639 38.2439 6.45463 37.7288 6.36098C37.2137 6.25951 36.8937 6.17366 37.0107 6.17366C37.1356 6.16585 37.5805 6.2361 38.0019 6.32195ZM39.4459 6.7122C39.5473 6.75902 39.5629 6.78244 39.4849 6.78244C39.4224 6.78244 39.3132 6.75122 39.2507 6.7122C39.1102 6.61854 39.2351 6.61854 39.4459 6.7122ZM33.6702 7.41463C34.1463 7.45366 34.7941 7.56293 35.1141 7.65658C36.6595 8.08585 38.5405 9.30341 39.3444 10.4117C39.7658 10.9971 39.5239 11.1922 38.9697 10.7005C38.4702 10.2634 36.5112 9.2878 35.3561 8.89756C34.5288 8.61659 34.2712 8.56976 33.4517 8.52293C32.9288 8.49171 32.2732 8.4839 31.9922 8.50732L31.8773 8.51793C31.8232 8.52292 31.8213 8.60125 31.8751 8.60878C32.0937 8.6478 32.5854 8.72585 32.9678 8.78829C34.3337 9.01463 36.3161 9.84195 37.1824 10.56C37.4556 10.7785 37.4634 10.8019 37.3307 10.9034C37.1278 11.0517 36.9717 11.0283 36.5346 10.8098C35.9883 10.5366 35.3795 10.4039 34.2556 10.3102C33.3893 10.2478 33.1707 10.1932 32.3044 9.87317C30.798 9.30341 30.3141 9.20195 29.0107 9.15512C28.8678 9.14983 28.7313 9.14334 28.6059 9.13611C28.1261 9.10844 28.0802 8.89874 28.48 8.63219C29.0732 8.22634 30.0176 7.82049 30.8058 7.61756C31.2195 7.50829 31.5239 7.46146 32.6166 7.35219C32.7258 7.34439 33.2019 7.36781 33.6702 7.41463ZM37.7054 7.60976C38.9151 7.86732 39.922 8.25756 40.6556 8.74927C41.4049 9.25658 42.6068 10.599 42.6068 10.9268C42.6068 11.161 42.4117 11.161 42.3024 10.9268C42.1854 10.6459 41.8732 10.5366 41.202 10.5366C40.7259 10.5366 40.6712 10.521 40.5776 10.3415C40.5229 10.24 40.0624 9.7561 39.5551 9.27219C38.7356 8.49171 38.5249 8.33561 37.7522 7.94536C36.8078 7.46927 36.8078 7.42244 37.7054 7.60976ZM43.6605 8.35122C43.7073 8.38244 43.9649 8.53073 44.2459 8.66341C44.5268 8.8039 45.1434 9.15512 45.6117 9.4361C46.0878 9.72488 46.5795 10.0137 46.7044 10.0839C46.8371 10.1541 46.9854 10.2868 47.0478 10.3727C47.1493 10.5288 47.1415 10.5366 46.8839 10.5366C46.3766 10.5366 45.3854 10.24 45.2605 10.0527C44.9093 9.52975 43.6215 8.43707 42.9424 8.08585C42.8019 8.01561 42.6849 7.94537 42.6849 7.92195C42.6849 7.88293 43.5512 8.26537 43.6605 8.35122ZM26.5288 8.46829C26.5288 8.51512 26.4663 8.61658 26.3883 8.68683C26.279 8.78829 26.2244 8.7961 26.1541 8.72585C26.0293 8.60097 26.0371 8.46049 26.1854 8.31219C26.279 8.21854 26.3337 8.21073 26.4195 8.28098C26.4819 8.3278 26.5288 8.41366 26.5288 8.46829ZM43.1532 9.62341C43.559 9.90439 44.1678 10.4976 44.1678 10.6068C44.1678 10.6537 44.0429 10.7083 43.8868 10.7395C43.6293 10.7863 43.5902 10.7629 43.3639 10.4898C43.2312 10.318 42.841 9.88878 42.4898 9.52976L42.2337 9.26408C42.1673 9.19521 42.2493 9.0867 42.3337 9.13171C42.5912 9.27219 42.958 9.49073 43.1532 9.62341ZM29.9239 9.79512C30.6419 9.93561 31.6956 10.2166 31.7737 10.2868C31.8049 10.318 31.4693 10.3415 31.0322 10.3493C30.5951 10.3493 30.041 10.3961 29.8068 10.4585C29.5649 10.5132 28.878 10.5678 28.2458 10.5756C27.5746 10.5834 26.841 10.6459 26.4351 10.7239C25.5766 10.8878 24.2966 11.3249 23.6566 11.6761C23.2429 11.9024 23.1805 11.918 23.2507 11.7854C23.4146 11.481 24.2263 10.7317 24.679 10.4663C25.2956 10.1073 26.279 9.7639 26.958 9.67805C27.6761 9.58439 29.1356 9.64683 29.9239 9.79512ZM20.16 10.3493C20.3317 10.5132 20.3161 10.7161 20.121 10.8956C20.0039 11.0049 19.9337 11.0205 19.8322 10.958C19.6527 10.841 19.6215 10.5054 19.7776 10.3493C19.9337 10.1932 20.0039 10.1932 20.16 10.3493ZM34.2634 10.958C35.2624 11.1532 35.9727 11.3249 35.9727 11.3795C35.9727 11.4107 35.7151 11.5356 35.4029 11.6605C35.0985 11.7854 34.6224 12.0195 34.3571 12.1834L34.1126 12.3317C33.9997 12.4002 33.853 12.3362 33.8263 12.2068C33.7951 12.0195 33.7405 11.9415 33.6312 11.9415C33.4517 11.9415 32.2107 12.3785 31.7971 12.5815C31.2273 12.8702 30.1424 13.6585 29.7834 14.041L29.6292 14.2057C29.5413 14.2996 29.3856 14.2699 29.3385 14.1502C29.2527 13.9083 29.2293 13.8849 29.0029 13.9317C28.6361 14.0098 27.6917 14.4624 27.161 14.8293C26.8956 15.001 26.6849 15.118 26.6849 15.0868C26.6849 14.8527 28.3395 12.9873 28.9093 12.5737C29.12 12.4254 29.1044 12.4254 28.6751 12.6049C27.2546 13.2137 26.0761 14.3532 25.1863 15.9844C25.0458 16.2498 24.5541 16.5151 24.5151 16.3512C24.4761 16.1873 24.9444 15.001 25.319 14.3141C26.1776 12.7376 27.8166 11.5434 29.6976 11.122C30.1658 11.0205 30.798 10.8956 31.0946 10.8566C31.7971 10.7551 33.5141 10.8176 34.2634 10.958ZM27.3561 11.3405C26.8176 11.6527 25.7171 12.5346 25.3893 12.9249C24.4371 14.0644 23.8673 15.2585 23.6332 16.601C23.5551 17.0224 23.5083 17.1317 23.2819 17.3112C23.1337 17.4283 22.8839 17.7093 22.7278 17.9356C22.5355 18.2048 22.3873 18.1443 22.4597 17.8215C22.6277 17.0728 23.0704 15.7133 23.2663 15.4771C23.3132 15.4224 23.3288 15.3756 23.3054 15.3756C23.2273 15.3756 22.7512 16.0937 22.4156 16.7415C22.041 17.4517 21.9941 17.3815 22.2751 16.5385C22.5873 15.6176 23.2039 14.4468 23.6956 13.8537C24.1873 13.2605 24.1795 13.2605 23.3288 13.9473C22.6185 14.5171 22.119 15.0478 21.4712 15.8985C21.198 16.2576 20.9483 16.5463 20.9093 16.5463C20.8624 16.5463 20.839 16.5698 20.8468 16.601C20.8546 16.64 20.7766 16.8195 20.6751 17.0146C20.5737 17.2098 20.3629 17.678 20.199 18.0683C19.8634 18.8566 19.8166 18.7473 20.0507 17.7015C20.5893 15.2507 22.4312 12.8859 24.5229 11.9493C25.4751 11.52 26.7473 11.1844 27.4263 11.1688C27.4896 11.1688 27.5116 11.2528 27.4565 11.2838L27.3561 11.3405ZM21.6507 11.4029C21.7288 11.6371 21.5102 11.8478 21.3463 11.7073C21.2215 11.6059 21.1824 11.3795 21.2761 11.2937C21.3854 11.1844 21.6039 11.2468 21.6507 11.4029ZM41.3346 11.6137C40.5854 12.6829 39.1258 13.799 38.5951 13.7054C38.4546 13.682 38.4156 13.6976 38.4468 13.7834C38.478 13.8615 38.4234 13.8927 38.2673 13.8927C38.1926 13.8927 38.1598 13.7985 38.2183 13.752L38.2673 13.7132C38.4546 13.5571 38.4858 13.4946 38.439 13.3073C38.4143 13.2085 38.2931 13.1718 38.2177 13.2403L38.2127 13.2449C37.9551 13.479 37.3541 13.8459 37.4166 13.721C37.6429 13.3385 38.1971 12.6283 38.439 12.4098C38.8683 12.0351 39.5785 11.7307 40.5932 11.481C41.0771 11.3639 41.4907 11.2702 41.5063 11.2859C41.5219 11.3015 41.4439 11.4498 41.3346 11.6137ZM44.1444 11.801C43.6917 12.5034 42.7707 13.081 41.7093 13.3151C41.0459 13.4634 40.9522 13.44 41.3581 13.2449C41.6624 13.0966 41.959 12.7532 41.8654 12.6595C41.8498 12.6439 41.7171 12.7063 41.5766 12.8078C41.5373 12.8364 41.4894 12.7858 41.5201 12.7481L41.5922 12.6595C41.7405 12.48 42.0293 12.2224 42.2322 12.0898C42.6459 11.8244 43.598 11.4732 43.918 11.4732C44.0351 11.4732 44.1834 11.442 44.2459 11.3951C44.4488 11.2702 44.4254 11.3717 44.1444 11.801ZM37.2995 11.8322C37.2995 11.8556 37.1512 12.1756 36.9717 12.5424C36.5502 13.3854 35.7307 14.2907 34.9268 14.7902C34.4429 15.0868 34.0215 15.2351 34.0215 15.1024C34.0215 15.0556 34.5132 14.3141 34.7317 14.0254C34.8176 13.9083 34.8644 13.8146 34.8332 13.8146C34.7863 13.8146 34.4507 14.1034 33.5688 14.9307C33.2644 15.2195 33.241 15.2273 33.3112 15.04C33.8341 13.6663 35.2078 12.4332 36.6751 12.0117C36.8702 11.9571 37.0576 11.8868 37.1044 11.8478C37.1824 11.7776 37.2995 11.762 37.2995 11.8322ZM47.2117 11.9259C47.2117 12.0507 46.8839 12.2927 46.7512 12.2693C46.681 12.2615 46.5405 12.3395 46.439 12.441L46.3839 12.5009C46.3455 12.5427 46.3835 12.6091 46.439 12.5971C46.7902 12.519 45.7756 13.1122 45.3385 13.2449C45.0476 13.3297 44.1776 13.4428 43.7669 13.4635C43.6225 13.4708 43.6066 13.4148 43.7463 13.3776C44.3785 13.2371 44.558 13.1746 44.7454 13.0263C45.0966 12.7532 44.8702 12.6595 44.4488 12.9093C43.9571 13.198 43.9259 13.159 44.3707 12.8078C44.9561 12.3473 45.5181 12.0976 46.3922 11.9102C46.681 11.8556 47.2117 11.8634 47.2117 11.9259ZM18.802 13.2137C18.9112 13.4244 18.9112 13.44 18.6927 13.6273C18.4976 13.799 18.4585 13.8146 18.3024 13.7132C18.0839 13.5649 18.0527 13.2917 18.2244 13.1044C18.4117 12.9015 18.6537 12.9483 18.802 13.2137ZM32.8507 13.518C32.398 14.7668 31.68 15.8361 30.8761 16.4527C30.1737 16.9912 29.6273 17.2722 29.9005 16.9522C29.9629 16.8819 30.1268 16.5776 30.2595 16.2888C30.3922 15.9922 30.5795 15.6488 30.6732 15.5239C30.7916 15.3561 30.7275 15.3164 30.5949 15.4732C30.2724 15.8547 29.6584 16.6391 29.3073 17.1317C29.1902 17.3034 29.1122 17.3737 29.1434 17.2878C29.1746 17.202 29.2995 16.8429 29.4244 16.4839C29.7444 15.5473 30.3297 14.6654 31.04 14.0488C31.2584 13.8558 31.9889 13.4382 32.4941 13.1892C32.8195 13.0289 32.9803 13.1792 32.8507 13.518ZM48.8585 13.0498C49.0302 13.0966 49.1629 13.159 49.1629 13.1824C49.1629 13.2137 48.921 13.3619 48.6322 13.518C48.1171 13.799 47.5161 13.9473 47.001 13.9239C46.8605 13.9161 46.6107 13.9083 46.4546 13.8927C46.3912 13.8893 46.3787 13.801 46.4388 13.7803L46.6107 13.721C47.0634 13.5649 47.1961 13.4244 46.8839 13.4244C46.6263 13.4244 46.798 13.2917 47.2898 13.12C47.7815 12.9483 48.4215 12.9171 48.8585 13.0498ZM51.2468 14.0254C52.6205 15.5239 52.8468 15.8751 52.5815 16.1405C52.4098 16.3122 52.2224 16.242 51.9649 15.9141C51.8244 15.7346 51.4029 15.2351 51.0205 14.798C50.6459 14.3688 50.3337 13.9473 50.3337 13.8771C50.3337 13.7132 50.4976 13.3463 50.5678 13.3463C50.599 13.3463 50.9034 13.6507 51.2468 14.0254ZM16.5307 14.2673C16.5854 14.3688 16.7727 14.5171 16.9522 14.5951C17.2722 14.7356 17.2566 14.7824 16.8898 14.8449C16.6556 14.8839 16.3824 15.3522 16.3746 15.719C16.3668 16.0702 16.3512 16.0312 16.1561 15.3132C16.0624 14.9698 15.961 14.8917 15.4849 14.7902C15.2585 14.7434 15.2663 14.7356 15.68 14.5717C16.078 14.4078 16.1171 14.3766 16.2029 14.0488C16.2498 13.8537 16.2966 13.682 16.3044 13.6585C16.3122 13.6351 16.3434 13.721 16.3746 13.8537C16.4059 13.9785 16.4761 14.1737 16.5307 14.2673ZM43.5824 13.8302C43.7064 13.8302 43.6609 13.8905 43.5376 13.8771C43.5202 13.8752 43.5036 13.8726 43.4888 13.8693C43.4107 13.8459 43.4576 13.8302 43.5824 13.8302ZM42.6927 14.1971C43.4576 14.439 43.9961 14.798 44.4176 15.36C44.7532 15.7971 44.9093 16.1639 44.7219 16.0468C44.6829 16.0156 44.3551 15.9454 43.9961 15.8751C43.6449 15.8127 43.1766 15.7034 42.9659 15.6488C42.4976 15.5083 41.3659 14.8995 41.1629 14.6732C41.112 14.6172 41.1608 14.5284 41.2354 14.5415L41.319 14.5561C41.4907 14.5795 41.7093 14.6185 41.8107 14.642C41.959 14.6732 41.9902 14.6498 41.9668 14.5405C41.9278 14.3376 41.4361 14.1893 40.6556 14.1424C39.6332 14.08 40.1327 13.9707 41.2488 14.0098C41.881 14.0332 42.3493 14.0956 42.6927 14.1971ZM45.7444 14.3532C46.3532 14.5639 46.7824 14.8683 47.2195 15.4146C47.5551 15.8205 47.9141 16.5776 47.8205 16.6712C47.8049 16.6868 47.4927 16.5541 47.1337 16.3668C46.6341 16.1171 46.3063 15.8673 45.6976 15.2819L45.2582 14.8557C45.1743 14.7743 45.2591 14.6356 45.3698 14.6732C45.6195 14.759 45.8771 14.8917 45.9317 14.962C46.0176 15.079 46.0332 15.079 46.0332 14.9854C46.0332 14.8137 45.6898 14.4468 45.401 14.322C45.0263 14.158 45.2449 14.1815 45.7444 14.3532ZM47.8829 14.8917C47.9688 14.9385 48.2341 15.001 48.4683 15.0244C48.8585 15.079 48.8741 15.0712 48.7337 14.962C48.64 14.8995 48.3824 14.7824 48.1483 14.7044C47.9141 14.6341 47.6956 14.5483 47.6644 14.5249C47.6332 14.5015 47.8985 14.478 48.2498 14.4859C48.7337 14.4859 48.9678 14.5327 49.202 14.6498C49.561 14.8371 49.8419 15.118 49.7561 15.2039C49.7249 15.2351 49.3737 15.2585 48.9834 15.2585C48.1717 15.2507 47.9532 15.1727 47.5239 14.6966C47.2976 14.4468 47.2898 14.4312 47.4849 14.6029C47.6176 14.72 47.7893 14.8449 47.8829 14.8917ZM39.438 14.7668C39.961 14.8995 40.8117 15.5161 40.8117 15.7659C40.8117 15.8751 39.001 15.8829 38.5093 15.7737C38.2985 15.719 37.9083 15.6019 37.6507 15.5083L37.626 15.4992C37.5117 15.4573 37.53 15.2902 37.6507 15.2741C37.9083 15.2429 38.1737 15.1961 38.2361 15.1727C38.439 15.1024 38.158 14.9854 37.7756 14.9854C37.4868 14.9854 37.4478 14.9698 37.5337 14.8683C37.6117 14.7746 37.6117 14.7512 37.5258 14.7434C37.4634 14.7356 37.5415 14.7044 37.6898 14.6732C38.0098 14.5951 39.001 14.6498 39.438 14.7668ZM37.2527 14.8527C37.3697 14.9385 37.2995 14.962 36.7454 15.0478C36.3941 15.0946 36.0897 15.1259 36.0741 15.1102C36.0511 15.0873 36.5022 14.9119 36.8008 14.8179C36.954 14.7697 37.1211 14.7606 37.2527 14.8527ZM28.7141 14.962C28.7063 15.1727 28.4488 16.0702 28.2458 16.5854C28.0039 17.1941 27.5122 17.998 27.0985 18.4741C27.0117 18.5743 26.8222 18.7387 26.63 18.891C26.2882 19.1617 26.1659 19.0455 26.3571 18.6537C26.8176 17.7327 26.9971 17.3268 26.958 17.3268C26.9346 17.3268 26.599 17.8107 26.2088 18.3961C25.8263 18.9893 25.5219 19.4029 25.5454 19.3171C25.5688 19.2312 25.6546 18.8644 25.7483 18.4976C25.9902 17.4751 26.3727 16.7727 27.0673 16.078C27.7151 15.4224 28.7141 14.7512 28.7141 14.962ZM15.2273 15.6566C15.3444 15.6878 15.36 15.7268 15.2819 15.8127C15.2351 15.8751 15.1415 15.922 15.0868 15.922C15.0244 15.922 14.9698 16.0078 14.9698 16.1327C14.9541 16.32 14.9541 16.3278 14.9229 16.1795C14.9073 16.078 14.8215 15.9532 14.7356 15.8985C14.5873 15.7893 14.5873 15.7893 14.7434 15.6488C14.8293 15.5707 14.8995 15.4537 14.9073 15.3834C14.9073 15.2976 14.9385 15.3132 14.9932 15.4302C15.04 15.5317 15.1415 15.6254 15.2273 15.6566ZM50.6459 15.7659C50.6459 15.8049 50.6068 15.8595 50.56 15.8907C50.4507 15.9532 50.3024 15.8049 50.3649 15.6956C50.4195 15.6098 50.6459 15.6644 50.6459 15.7659ZM36.4176 16C37.0888 16.1483 38.158 16.7805 37.7288 16.7805C37.6663 16.7805 37.5258 16.8273 37.4322 16.8898C37.0966 17.1083 35.9961 17.2722 35.1532 17.2254C34.3805 17.1863 33.0537 16.8429 33.319 16.7571C33.3815 16.7337 33.6937 16.6556 34.0058 16.5854C34.3102 16.5073 34.5678 16.4137 34.5678 16.3668C34.5678 16.2498 33.5376 16.3512 32.8195 16.5463C32.0078 16.7649 31.8829 16.7024 32.6166 16.4449C33.9824 15.9688 35.4576 15.7971 36.4176 16ZM17.8263 16.7024C17.9044 16.8273 17.6468 17.1707 17.4829 17.1707C17.2254 17.1707 17.1395 16.6868 17.3737 16.5541C17.5141 16.4761 17.7327 16.5541 17.8263 16.7024ZM44.5268 16.8507C45.6898 16.9288 46.0566 17.0224 46.9697 17.4673C48.0078 17.9746 48.7727 18.958 48.8976 19.9415L48.9109 20.0523C48.9193 20.1225 48.8275 20.1564 48.7883 20.0976C48.5698 19.7463 47.9844 19.2624 47.4693 18.9893C47.2195 18.8566 46.4937 18.5522 45.8615 18.3102C44.5034 17.7951 43.9102 17.5063 43.2624 17.0537C42.5678 16.562 42.5132 16.4605 43.0283 16.6322C43.2859 16.7181 43.8712 16.8039 44.5268 16.8507ZM50.0995 16.7415C50.0995 16.8039 50.0449 16.8585 49.9824 16.8585C49.92 16.8585 49.8654 16.8039 49.8654 16.7415C49.8654 16.679 49.92 16.6244 49.9824 16.6244C50.0449 16.6244 50.0995 16.679 50.0995 16.7415ZM40.4917 16.8273C40.4449 16.882 40.2107 17.0537 39.9688 17.2176C39.2195 17.7249 39.2117 17.7249 40.6244 17.1395C40.8898 17.0302 41.241 16.921 41.4049 16.8976C41.4964 16.8858 41.5478 16.9998 41.4783 17.0606L41.3971 17.1317C40.8351 17.639 38.4468 18.7083 37.1512 19.0283C36.4254 19.2078 36.7376 19.2312 37.8849 19.0829C38.7902 18.9659 39.8205 18.6693 41.4751 18.0293C41.678 17.9512 41.6937 17.959 41.5922 18.0527C41.1083 18.521 40.3668 19.122 39.8985 19.4498C39.5863 19.6605 39.3288 19.84 39.3288 19.8634C39.3288 19.9571 41.8498 18.6068 42.1776 18.3337C42.3883 18.162 42.5756 18.0527 42.5912 18.0995C42.6381 18.2478 42.0605 19.0361 41.5922 19.4576C40.6166 20.3395 38.3454 21.4868 37.0732 21.7444C36.199 21.9161 34.4429 21.8615 33.7483 21.6429C33.652 21.6124 33.6695 21.4713 33.7703 21.4652L34.0605 21.4478C35.0751 21.3854 35.4732 21.2449 34.6849 21.2293C34.3883 21.2215 33.9278 21.1902 33.6702 21.159L33.6318 21.1545C33.5699 21.1473 33.5694 21.0576 33.6312 21.0498C35.3171 20.8078 36.3239 20.5112 37.2215 19.9727C37.9473 19.5434 38.0644 19.3795 37.4712 19.6371C36.9795 19.8478 35.801 20.1912 34.8644 20.402C33.8888 20.6205 32.8195 20.6673 32.0624 20.5268C31.2585 20.3785 30.9229 20.1366 31.5161 20.1366C32.2888 20.1366 33.8498 19.6839 34.6302 19.2312C34.8332 19.1141 35.2078 18.9034 35.4654 18.7629C35.8244 18.56 35.8868 18.4976 35.7463 18.4976C35.4419 18.4976 35.5902 18.4273 36.3707 18.2166C37.2215 17.9824 37.8224 17.7249 38.5873 17.2566C38.9073 17.0615 39.2585 16.9132 39.438 16.8898C39.4721 16.8865 39.5061 16.8823 39.5389 16.8774C39.7103 16.8517 39.7188 16.7782 39.5473 16.8039C39.3834 16.8273 39.2507 16.8195 39.2507 16.7805C39.2507 16.7415 39.5473 16.7102 39.9063 16.718C40.4137 16.7337 40.5463 16.7571 40.4917 16.8273ZM13.5337 17.3268C13.6117 17.8107 13.8849 18.0761 14.4078 18.1932L14.4391 18.2004C14.5387 18.2236 14.5386 18.3653 14.439 18.3883C13.8146 18.5288 13.5024 18.9112 13.4868 19.5668C13.4868 19.8088 13.4712 19.8322 13.4166 19.7073C13.3776 19.6215 13.3307 19.4263 13.2995 19.2702C13.2137 18.7317 12.7454 18.3493 12.1522 18.3337C11.9415 18.3337 11.9883 18.3024 12.402 18.1854C12.9873 18.0215 13.2371 17.7795 13.3073 17.319C13.3698 16.9288 13.4634 16.9288 13.5337 17.3268ZM24.8117 17.8576C24.7024 18.7005 24.4761 19.4107 24.0624 20.2146C23.9533 20.4242 23.8094 20.6571 23.6667 20.8638C23.3605 21.3073 23.1528 21.1724 23.2585 20.6439C23.3366 20.2146 23.4068 19.8478 23.4068 19.8244C23.399 19.7541 22.9385 20.7844 22.8839 20.9795C22.798 21.3463 22.6654 21.1044 22.681 20.5971C22.72 19.6293 23.118 18.7083 23.7893 18.0371C23.9216 17.9047 24.1283 17.7275 24.3254 17.5702C24.6668 17.2979 24.8599 17.4236 24.8117 17.8576ZM51.2312 18.0527C51.3795 18.2868 51.6605 18.4195 52.0351 18.4273C52.0899 18.4273 52.1028 18.5039 52.051 18.5218L51.918 18.5678C51.3717 18.7551 51.2937 18.8332 51.1454 19.3483C50.8878 20.2146 50.8956 20.2068 50.8878 19.9024C50.8644 19.1688 50.482 18.5756 50.0215 18.5756C49.7171 18.5756 49.7795 18.4507 50.1229 18.3883C50.5132 18.318 50.7083 18.1385 50.8098 17.7717C50.958 17.2176 50.9815 17.202 51.0439 17.5376C51.0751 17.7171 51.161 17.9512 51.2312 18.0527ZM33.0302 17.6C33.5141 17.7249 34.2556 18.0683 34.2556 18.1698C34.2556 18.2634 33.5454 18.5444 32.8117 18.7395C32.2888 18.88 32.0546 18.9034 31.3678 18.8644C30.8995 18.841 30.3532 18.7629 30.08 18.6771C29.932 18.6302 29.9302 18.4215 30.0772 18.372L30.3766 18.2712C30.7902 18.1307 31.1337 17.998 31.1337 17.9746C31.1337 17.8576 30.0644 18.0449 29.2995 18.2868C28.3629 18.5912 28.3785 18.4976 29.3229 18.0527C30.3922 17.5532 32.0624 17.3502 33.0302 17.6ZM44.5034 19.3873C45.1122 19.7698 46.6732 20.5502 46.7278 20.4956C46.7512 20.4722 46.7278 20.4488 46.681 20.4488C46.5561 20.4488 45.6819 19.7151 45.2059 19.2234C44.9795 18.9893 44.8624 18.8098 44.9327 18.8332C45.0029 18.8566 45.4322 18.9893 45.8849 19.122C47.1415 19.5044 47.9141 19.8946 48.4917 20.4488C49.1941 21.12 49.4829 21.6898 49.5298 22.5093C49.5532 22.8917 49.5298 23.3288 49.4673 23.6098L49.4417 23.728C49.4246 23.8071 49.3115 23.8062 49.2956 23.7268C49.1941 23.2039 48.921 22.6341 48.6244 22.2985C48.3122 21.9551 48.1405 21.8537 47.8049 21.799C47.3366 21.7288 46.3219 21.4478 45.8693 21.2683C45.3073 21.042 44.3473 20.3785 43.9415 19.9415C43.6293 19.6059 43.2624 18.9659 43.1454 18.56C43.0907 18.3571 43.1141 18.3649 43.5668 18.7239C43.8322 18.9268 44.2537 19.2234 44.5034 19.3873ZM54.8605 18.5756C54.8605 18.7551 54.6576 18.8722 54.5405 18.7551C54.4312 18.6459 54.5405 18.4195 54.7122 18.4195C54.8059 18.4195 54.8605 18.4741 54.8605 18.5756ZM18.2478 19.1766C18.3259 19.239 18.3415 19.2702 18.279 19.278C18.2244 19.278 18.1307 19.3717 18.0683 19.4888C18.0043 19.6168 17.9351 19.5363 17.8416 19.4279C17.8226 19.4059 17.8017 19.3843 17.7795 19.3639L17.7528 19.3397C17.6862 19.2795 17.7 19.1714 17.7795 19.1298C17.8732 19.0751 17.9434 18.9815 17.9434 18.9034C17.9512 18.7941 17.959 18.7941 18.0371 18.9268C18.0839 19.0127 18.1854 19.122 18.2478 19.1766ZM29.6429 19.559L29.8407 19.6262C29.9335 19.6577 29.9542 19.7796 29.8771 19.84C29.7756 19.918 29.6429 20.0195 29.5883 20.0663C29.4088 20.2146 28.4878 20.6049 28.0273 20.722C27.7229 20.8078 27.2546 20.839 26.5678 20.8312L26.0313 20.823C25.9106 20.8211 25.874 20.6581 25.9824 20.6049C26.5834 20.3083 26.919 20.1054 26.919 20.0351C26.919 20.0039 26.9034 19.9805 26.8878 19.9805C26.8176 19.9805 25.2176 20.7063 25.0615 20.8078C24.96 20.878 24.8585 20.9171 24.8429 20.9015C24.7961 20.8468 25.7639 20.16 26.2088 19.9259C26.4351 19.8166 26.9034 19.6371 27.2546 19.5356C28.0195 19.3249 28.9795 19.3327 29.6429 19.559ZM53.5649 19.6995C53.5883 19.8088 53.6819 19.918 53.7678 19.9415C53.9551 20.0039 53.9785 20.1366 53.799 20.1366C53.7366 20.1366 53.6429 20.238 53.6039 20.3707C53.5102 20.6283 53.3776 20.6829 53.3776 20.4566C53.3776 20.2927 53.2527 20.1678 53.0263 20.121C52.8937 20.0976 52.9015 20.0741 53.1044 19.9727C53.2449 19.9102 53.3463 19.7854 53.3619 19.6839C53.3932 19.4576 53.5024 19.4654 53.5649 19.6995ZM16.3356 20.3629C16.4137 21.0341 16.6556 21.6507 16.9834 22.0176C17.2098 22.2673 17.3815 22.361 17.9356 22.5249C18.3024 22.642 18.638 22.759 18.6693 22.7902C18.7083 22.8215 18.5834 22.8683 18.3961 22.8995C18.0215 22.9541 17.28 23.2741 17.0537 23.4771C16.6946 23.8049 16.3122 24.9522 16.3044 25.7171C16.2966 26.1776 16.1795 25.8966 16.1171 25.2878C16.0468 24.562 15.8595 24.0156 15.5473 23.6488C15.2039 23.2507 14.8449 23.0634 14.1971 22.9463C13.2605 22.7824 13.2605 22.7746 13.9239 22.6654C14.8215 22.5093 15.1649 22.361 15.5083 21.9707C15.8751 21.5571 16.0624 21.0107 16.1249 20.1834C16.1795 19.5044 16.2498 19.559 16.3356 20.3629ZM21.5258 20.2459C21.7054 20.839 21.7366 21.5024 21.6039 22.2127C21.4712 22.9385 21.401 22.9385 21.44 22.1971C21.4868 21.3698 21.3619 21.3619 21.2137 22.1893C21.1512 22.4937 21.0966 22.6888 21.081 22.6107C21.0596 22.5145 20.9614 22.4789 20.9643 22.3804C20.9652 22.349 20.9677 22.3134 20.9717 22.2751C20.9873 22.1268 20.9717 22.0098 20.9249 22.0098C20.8858 22.0098 20.8702 22.0956 20.8937 22.2049C20.9405 22.4859 20.839 22.4468 20.7063 22.1268C20.5658 21.7912 20.5658 21.2215 20.7063 20.7532C20.8624 20.238 21.2215 19.559 21.2995 19.6371C21.3307 19.6761 21.44 19.9493 21.5258 20.2459ZM12.1678 20.0976C12.1678 20.16 12.1132 20.2146 12.0507 20.2146C11.9883 20.2146 11.9337 20.16 11.9337 20.0976C11.9337 20.0351 11.9883 19.9805 12.0507 19.9805C12.1132 19.9805 12.1678 20.0351 12.1678 20.0976ZM15.1649 20.1132C15.2195 20.2459 15.079 20.3863 14.9385 20.3473C14.8995 20.3317 14.8527 20.2459 14.8371 20.1522C14.8137 20.0273 14.8527 19.9805 14.9619 19.9805C15.0478 19.9805 15.1415 20.0429 15.1649 20.1132ZM42.7863 20.4878L42.9393 20.6884C43.0581 20.8441 43.0656 21.0578 42.958 21.2215C42.7551 21.5102 42.4039 21.7756 42.2088 21.7756C42.0761 21.7756 41.3581 21.0576 41.3581 20.9327C41.3581 20.8937 41.4907 20.7688 41.6546 20.6517C41.8185 20.5424 42.0527 20.3395 42.1776 20.2146C42.3295 20.0627 42.4863 20.0907 42.6158 20.2622C42.667 20.3301 42.7251 20.407 42.7863 20.4878ZM11.6995 21.2293C11.8322 21.2293 11.7854 21.4244 11.6293 21.518C11.5434 21.5727 11.4654 21.721 11.4498 21.8693C11.4429 21.9261 11.363 21.9324 11.3473 21.8774L11.3405 21.8537C11.2937 21.7054 11.1844 21.5415 11.0829 21.4946C10.8644 21.3854 10.8644 21.3073 11.0907 21.198C11.2078 21.1434 11.278 21.0263 11.2937 20.878C11.3032 20.8062 11.3997 20.7896 11.4328 20.854L11.4732 20.9327C11.559 21.0966 11.6605 21.2293 11.6995 21.2293ZM12.9171 20.7688C12.9405 20.8156 12.9249 20.8937 12.878 20.9405C12.8078 21.0107 12.7688 21.0029 12.7141 20.9171C12.6439 20.8 12.6829 20.6829 12.7922 20.6829C12.8312 20.6829 12.8859 20.722 12.9171 20.7688ZM30.8215 21.159C31.1024 21.4166 31.5317 21.76 31.7815 21.9083C32.0745 22.0974 32.0208 22.2031 31.6921 22.0866C31.3809 21.9764 30.9947 21.8196 30.7434 21.6898C30.5093 21.5727 30.1424 21.3541 29.9395 21.2059L29.8275 21.1265C29.713 21.0454 29.7321 20.8701 29.8615 20.8156C30.0254 20.7532 30.1971 20.6985 30.2361 20.6907C30.2829 20.6829 30.5405 20.8937 30.8215 21.159ZM55.9063 21.0341C55.9688 21.2059 55.8829 21.3698 55.7034 21.4322C55.4927 21.4946 55.3756 21.3619 55.438 21.12C55.4771 20.9717 55.5395 20.9171 55.6722 20.9171C55.7737 20.9171 55.8751 20.9717 55.9063 21.0341ZM40.9678 21.3151C40.9678 21.4634 41.8888 22.2985 42.1073 22.3532C42.3961 22.4312 42.919 22.0956 43.278 21.6117C43.5356 21.2527 43.5824 21.2215 43.6683 21.3463C43.8244 21.5649 43.6449 21.9239 43.0985 22.4546C42.4585 23.0946 42.3181 23.1259 41.842 22.7434C41.3034 22.3063 40.5776 21.5571 40.5776 21.4322C40.5776 21.3229 40.6868 21.2449 40.8741 21.2371C40.921 21.2293 40.9678 21.2683 40.9678 21.3151ZM53.1044 21.4634C53.1668 21.5649 52.9951 21.7912 52.9015 21.7288C52.8624 21.7054 52.8312 21.6195 52.8312 21.5337C52.8312 21.3776 53.0185 21.3307 53.1044 21.4634ZM26.5678 21.8927C27.2858 22.1112 27.3327 22.2361 26.7317 22.2985C26.4976 22.3298 26.3727 22.3844 26.3493 22.4702C26.279 22.759 24.5073 23.2273 23.7815 23.1649C23.5707 23.1415 23.3444 23.0712 23.2819 23.0088C23.1727 22.9073 23.2117 22.8605 23.5707 22.6263C24.2263 22.2049 23.8205 22.2361 22.9854 22.6732L22.6249 22.8554C22.5588 22.8888 22.4967 22.8043 22.5483 22.7512C22.6966 22.5951 22.9307 22.4 23.0556 22.322C23.3366 22.1502 24.1717 21.8615 24.6556 21.7678C25.1317 21.682 26.0917 21.7444 26.5678 21.8927ZM44.4332 21.8224C44.4566 21.8927 44.48 22.041 44.48 22.158C44.48 22.4078 43.9571 22.9776 42.9034 23.8673L42.8631 23.9011C42.4986 24.207 41.963 24.1925 41.6156 23.8673C41.28 23.5551 40.6868 23.001 40.2966 22.6341C40.0683 22.4196 39.8615 22.2211 39.7275 22.0885C39.6202 21.9825 39.6184 21.854 39.7658 21.8224C39.9376 21.7756 40.039 21.8459 40.4839 22.2673C40.7727 22.5483 41.28 23.0088 41.6078 23.2976L41.6666 23.3487C41.9859 23.6266 42.4526 23.6537 42.802 23.4146C43.481 22.9385 43.8712 22.5327 44.1054 22.0488C44.2927 21.6741 44.3551 21.6273 44.4332 21.8224ZM29.1434 22.4078C28.6517 22.9073 28.0741 23.3522 27.5356 23.6488C27.0439 23.922 27.0985 23.9454 27.6839 23.7268C28.3161 23.4849 29.1746 23.04 29.5961 22.7356C29.799 22.5795 29.9863 22.478 30.0097 22.5015C30.08 22.5717 29.6741 23.0634 29.3151 23.36C28.8234 23.7502 27.8868 24.3434 27.2702 24.64C26.4819 25.0146 26.8722 24.96 27.9102 24.5385C29.0029 24.1015 29.518 23.8049 30.2595 23.1805C30.72 22.7902 30.8761 22.7044 31.0244 22.7434C31.1258 22.7746 31.2117 22.8371 31.2117 22.8839C31.2117 22.9385 31.0088 23.1883 30.7668 23.4459L30.7118 23.5019C30.6648 23.5496 30.7272 23.6241 30.7824 23.5863C31.04 23.4146 31.3522 23.1805 31.4771 23.079C31.68 22.9151 31.7424 22.8995 32.0156 22.9698L32.0402 22.9761C32.155 23.0055 32.1865 23.1536 32.0937 23.2273C32.062 23.2533 32.0936 23.3031 32.1306 23.2855L32.1873 23.2585C32.5073 23.0946 32.8507 23.0556 32.8507 23.1727C32.8507 23.2976 31.8127 24.1951 31.1727 24.6166C29.2215 25.92 27.2 26.5678 25.2019 26.56C23.9922 26.5444 22.9932 26.3805 22.4312 26.0995C21.8849 25.8185 20.9561 25.0459 20.5737 24.5463C20.238 24.1015 19.7698 23.1805 19.6995 22.8215C19.6527 22.5873 19.6527 22.5873 20.0819 22.9854C20.8312 23.6956 21.9863 24.1873 23.2117 24.3122C23.8751 24.3824 25.2098 24.2341 25.9824 24C26.919 23.7268 27.9337 23.1961 28.7532 22.5717C28.8656 22.484 28.9728 22.4016 29.069 22.3284C29.3485 22.1158 29.3871 22.1551 29.1434 22.4078ZM40.5698 23.6878C41.4439 24.4839 42.1776 25.1317 42.1932 25.1317C42.279 25.1317 43.5746 24.0702 44.16 23.5239L44.4589 23.2416C44.6615 23.0503 44.9907 23.1054 45.12 23.3522C45.2605 23.6254 45.5961 24.0702 45.8615 24.3512C46.1346 24.6244 46.3532 24.8976 46.3532 24.9522C46.3532 24.999 46.3141 25.1395 46.2595 25.2566C46.1737 25.4361 46.1346 25.4595 45.8615 25.4205C45.5181 25.3737 44.1912 25.6234 43.7385 25.8263C43.3717 25.9902 42.7629 26.6146 42.5444 27.0517C42.4663 27.2156 42.3181 27.598 42.2166 27.8946C42.0683 28.3551 42.0449 28.5424 42.0839 29.1434C42.1385 30.0332 42.3259 30.9385 42.5912 31.6019L42.6629 31.7783C42.7412 31.9712 42.6872 32.1927 42.5288 32.3278C42.3805 32.4449 42.1463 32.5698 42.0059 32.5932C41.6624 32.6556 41.678 32.7649 42.0449 32.7961C42.1411 32.8039 42.174 32.9283 42.0943 32.9827L41.9902 33.0537C41.8029 33.1785 41.5688 33.3424 41.4673 33.4049C41.2332 33.5532 41.2644 33.6702 41.5454 33.7015C41.92 33.7483 42.7785 33.1005 43.2 32.4683C43.3181 32.2911 43.3474 32.0691 43.2792 31.8674L43.1922 31.6098C42.958 30.9307 42.6849 29.5493 42.6849 29.0888C42.6927 28.7688 42.8332 28.519 43.1688 28.2615C43.2859 28.1756 43.3093 28.199 43.3873 28.48C43.4498 28.7063 43.5356 28.8312 43.6995 28.9171C44.1678 29.159 44.48 29.0185 44.8234 28.4098C45.0654 27.9805 45.0732 28.0117 44.8702 28.6127C44.7844 28.8624 44.6127 29.1668 44.4956 29.2917L44.4332 29.3587C44.39 29.4052 44.4342 29.4793 44.4956 29.4634C44.6907 29.4166 44.7063 29.4322 44.761 29.7054C44.8702 30.3063 44.8312 32.0937 44.6985 32.5073C44.4644 33.2332 44.0741 34.1463 43.7151 34.8098C42.9268 36.2693 40.601 39.7034 40.0702 40.1873C39.4849 40.7258 38.6888 40.8351 37.518 40.5463C35.7073 40.0937 31.8595 37.0263 30.439 34.8956C29.9239 34.1151 29.5493 33.4283 29.3619 32.9054C29.2527 32.5776 29.2683 32.5854 29.5571 32.9678C29.7219 33.183 30.0829 33.5944 30.3579 33.8914C30.5838 34.1354 30.6732 34.0766 30.5093 33.7873C30.2361 33.2956 29.7756 31.8751 29.6117 31.04C29.479 30.361 29.5024 30.2517 30.0019 29.0966C30.2595 28.5034 30.361 28.3395 30.3922 28.4488C30.6263 29.2059 31.1415 30.2205 31.399 30.4312C31.4615 30.4859 31.3912 30.2439 31.2351 29.8927C31.04 29.44 30.9463 29.0732 30.8839 28.5424C30.8137 27.8712 30.8215 27.7932 31.001 27.278L31.0297 27.1943C31.0868 27.0277 31.3181 27.0164 31.3912 27.1766C31.6722 27.8088 32.7337 29.3385 32.8273 29.2449C32.8429 29.2293 32.7649 29.0498 32.6556 28.8546C32.4605 28.5034 32.0624 27.481 31.961 27.0673C31.9297 26.9112 31.9376 26.8644 32.0078 26.8878C32.0624 26.9034 32.3122 26.9737 32.5541 27.0361C32.8507 27.122 33.1317 27.278 33.4127 27.52C34.3102 28.2849 35.0673 28.6127 36.0741 28.6673C36.6829 28.6985 36.8078 28.6205 36.3863 28.48C35.7151 28.2693 35.1454 27.918 34.7005 27.4498C34.3727 27.0985 34.279 26.958 34.3571 26.919C34.4819 26.8488 35.5824 26.5366 35.5824 26.5678C35.5824 26.5834 35.6137 26.7707 35.6605 26.9893C35.8946 28.238 37.1044 28.6595 38.0176 27.8088L38.0504 27.7772C38.1393 27.6917 38.2838 27.7068 38.3532 27.8088C38.4312 27.9337 38.4624 28.082 38.4312 28.2224C38.4176 28.2786 38.4892 28.3148 38.5263 28.2705L38.5405 28.2537C38.72 28.0351 38.7512 27.7776 38.6107 27.5512C38.4858 27.3561 38.5717 27.278 38.7902 27.3951C38.8632 27.4349 38.9509 27.3768 38.9428 27.2941L38.9073 26.9346C38.8761 26.6302 38.8683 26.3805 38.8995 26.3805C38.9229 26.3805 39.0088 26.4273 39.0946 26.4741C39.2117 26.5522 39.2663 26.5522 39.3444 26.4741C39.4224 26.3961 39.4146 26.318 39.2663 26.0683C39.2102 25.9687 39.3117 25.8543 39.4172 25.8983L39.6566 25.998C39.961 26.1229 40.2263 26.2166 40.242 26.201C40.3278 26.1073 40.1249 25.6234 39.9141 25.4127C39.1805 24.679 36.6907 23.7424 35.4263 23.719C35.1454 23.719 34.7317 23.6878 34.5054 23.6644C34.3533 23.6443 34.3018 23.4501 34.4239 23.3573L34.4819 23.3132C34.8722 23.0244 34.88 23.0244 35.6527 23.0244C36.6907 23.0244 37.8771 22.759 38.5951 22.3688C38.7911 22.2708 38.9925 22.3023 39.1607 22.4427C39.4616 22.6939 39.988 23.158 40.5698 23.6878ZM46.6185 22.5639C47.6176 22.9307 48.1327 23.2429 48.4605 23.6878C49.2644 24.7493 49.2956 26.3259 48.5307 27.1922C48.2419 27.52 47.758 27.7854 47.2507 27.8946C47.0244 27.9415 47.0322 27.9337 47.4146 27.5746C47.9141 27.1141 48.039 26.8956 48.1951 26.3024C48.4293 25.3737 48.1327 24.7337 46.9932 23.7346C46.0956 22.9385 45.44 22.1112 45.8693 22.2829C45.9395 22.3141 46.2751 22.439 46.6185 22.5639ZM51.8946 22.8683C52.0273 22.8683 51.9805 23.001 51.8322 23.0478C51.7463 23.0634 51.6605 23.1883 51.6215 23.3444L51.6194 23.3522C51.606 23.4028 51.5324 23.3965 51.5278 23.3444C51.5044 23.1727 51.4419 23.0712 51.3405 23.0478C51.1532 22.9932 51.1532 22.8995 51.3405 22.7902C51.4263 22.7512 51.52 22.6341 51.5512 22.5405C51.598 22.3844 51.6059 22.3922 51.7073 22.6185C51.7619 22.759 51.8478 22.8683 51.8946 22.8683ZM10.6146 23.118C10.6849 23.2898 10.8098 23.399 10.9815 23.4615C11.239 23.5395 11.2468 23.6488 10.9893 23.6488C10.8176 23.6488 10.5288 24.0078 10.5288 24.2107C10.5288 24.2966 10.4976 24.3356 10.4507 24.3122C10.4117 24.2888 10.3727 24.1795 10.3727 24.078C10.3727 23.8439 10.1776 23.6488 9.93561 23.6488C9.66244 23.6488 9.70146 23.5395 10.0215 23.4224C10.2322 23.3522 10.3102 23.2663 10.3493 23.0946C10.4039 22.798 10.4741 22.8059 10.6146 23.118ZM7.87512 23.4459C7.87512 23.5941 7.78927 24 7.6878 24.359C7.17268 26.1541 6.94634 27.161 6.82146 28.2537C6.74341 28.9561 6.73561 28.9561 6.33756 28.9561C6.14508 28.9561 5.99443 28.7903 6.0128 28.5987L6.03317 28.3863C6.15024 27.1844 6.78244 24.64 7.14146 23.9454C7.28195 23.68 7.71122 23.1805 7.80488 23.1805C7.8439 23.1805 7.87512 23.2976 7.87512 23.4459ZM54.8917 24.0546C55.0244 24.2576 55.36 24.4215 55.6722 24.4371C55.7659 24.4449 55.6722 24.4995 55.4693 24.562C55.0244 24.6946 54.8293 24.9444 54.6732 25.5688C54.6107 25.8341 54.5639 25.9434 54.5561 25.8263C54.5405 25.5141 54.3219 24.9288 54.1502 24.7727C54.0722 24.7024 53.838 24.601 53.6351 24.5463L53.5816 24.5327C53.5131 24.5152 53.5183 24.4161 53.5883 24.4059C54.0566 24.3278 54.361 24.039 54.478 23.5629L54.4916 23.5098C54.5154 23.4163 54.6478 23.4152 54.6732 23.5083C54.72 23.6956 54.8215 23.9454 54.8917 24.0546ZM57.1395 24C57.5376 25.0302 58.1385 27.8244 58.1385 28.6595C58.1385 28.8233 58.0057 28.9561 57.8419 28.9561H57.7761C57.5914 28.9561 57.4363 28.8172 57.4159 28.6337L57.3971 28.4644C57.3034 27.559 57.1161 26.5756 56.8039 25.3502C56.4761 24.039 56.4527 23.8049 56.5854 23.5629C56.7337 23.282 56.9132 23.4302 57.1395 24ZM12.558 24.6088C12.558 24.9678 12.7376 25.5376 12.9405 25.8185C13.1512 26.1151 13.5415 26.2946 14.2283 26.4195C14.8137 26.521 14.8137 26.521 13.9395 26.6849C13.0888 26.8332 12.7766 27.1844 12.5502 28.2146L12.5406 28.259C12.5221 28.3444 12.3989 28.3401 12.3863 28.2537C12.3473 28.0195 12.238 27.6449 12.1366 27.4263C11.9102 26.9424 11.5902 26.7395 10.841 26.6224C10.7935 26.6143 10.7471 26.6061 10.7029 26.5981C10.4428 26.5509 10.4386 26.4556 10.7005 26.4195C11.2624 26.3493 11.6995 26.1463 11.9571 25.8419C12.1756 25.5766 12.402 24.9366 12.402 24.5698C12.402 24.4527 12.441 24.3512 12.48 24.3512C12.5268 24.3512 12.558 24.4683 12.558 24.6088ZM35.7073 24.4371C35.9571 24.4839 36.4332 24.6322 36.7532 24.7649L36.7626 24.7689C36.9096 24.8316 36.8735 25.0495 36.7141 25.0615C36.0819 25.1161 35.6293 25.2566 35.7073 25.3737C35.7307 25.4127 35.8634 25.4439 35.9961 25.4517C36.1366 25.4517 36.3161 25.4829 36.4019 25.5219C36.5112 25.5688 36.3629 25.5922 35.9337 25.6C35.5902 25.6078 35.239 25.6312 35.1532 25.6468C35.0673 25.6702 34.638 25.7015 34.2088 25.7327C33.5922 25.7639 33.3346 25.7483 33.038 25.6546L32.9662 25.6312C32.8997 25.6095 32.8519 25.6953 32.9054 25.7405C32.9849 25.8098 32.9322 25.9406 32.8268 25.9354L32.5151 25.92C31.5317 25.881 31.5161 25.8576 32.1327 25.3971C32.8819 24.8273 33.3268 24.5463 33.5922 24.4449C33.9044 24.3356 35.1219 24.3278 35.7073 24.4371ZM19.8946 25.3034L20.0866 25.5594C20.1715 25.6726 20.0908 25.8341 19.9493 25.8341C19.52 25.8341 18.8566 26.0215 18.4351 26.2712C18.2478 26.3805 18.0995 26.4429 18.0995 26.4117C18.0995 26.3571 18.919 25.0224 19.1454 24.718C19.3015 24.5073 19.3171 24.4995 19.4107 24.64C19.4576 24.718 19.6839 25.0146 19.8946 25.3034ZM51.5668 25.2254C51.5122 25.3737 51.2702 25.3971 51.2702 25.2566C51.2702 25.1785 51.3405 25.1317 51.4341 25.1317C51.5278 25.1317 51.5824 25.1707 51.5668 25.2254ZM8.88976 25.8419C8.88976 25.8654 8.82732 25.9434 8.74927 26.0215C8.60878 26.1385 8.59317 26.1385 8.46829 25.998C8.33561 25.8576 8.33561 25.8341 8.46829 25.639L8.4789 25.6231C8.5423 25.528 8.68069 25.5242 8.74927 25.6156C8.81951 25.7093 8.88976 25.8185 8.88976 25.8419ZM46.041 26.1776C46.041 26.24 46.0019 26.318 45.9551 26.3493C45.9083 26.3727 45.8068 26.56 45.721 26.7473C45.6335 26.959 45.4147 27.0855 45.1876 27.0555L45.159 27.0517C44.9405 27.0283 44.6283 27.0049 44.48 26.9971C44.2068 26.9893 44.2146 26.9893 44.5971 26.8644C44.839 26.7785 44.9951 26.6771 45.0107 26.5912C45.0341 26.4819 44.9717 26.4585 44.5815 26.4507C44.199 26.4507 44.16 26.4351 44.3239 26.3727C45.0341 26.0839 46.041 25.9746 46.041 26.1776ZM36.7532 27.3327C37.0029 27.5356 37.2215 27.5044 37.5102 27.2234C37.8693 26.8722 37.8537 27.1376 37.4946 27.52C37.2605 27.7698 37.1902 27.801 36.9795 27.7541C36.6595 27.6917 36.519 27.5746 36.3941 27.2624C36.3083 27.0673 36.3083 26.9659 36.3785 26.7941C36.403 26.7318 36.494 26.7407 36.5059 26.8067L36.519 26.88C36.5502 27.0517 36.6517 27.2546 36.7532 27.3327ZM52.9093 26.8488C52.9093 26.9346 52.878 27.0049 52.8312 27.0049C52.7922 27.0049 52.7532 26.9346 52.7532 26.8488C52.7532 26.7629 52.7922 26.6927 52.8312 26.6927C52.878 26.6927 52.9093 26.7629 52.9093 26.8488ZM20.7219 26.9659C21.3619 27.2859 21.7366 28.0663 21.5415 28.6673C21.44 28.9717 21.1044 29.3073 20.839 29.3698C20.4332 29.4712 19.8166 28.9951 19.8166 28.5893C19.8166 28.4332 19.8478 28.4098 19.9961 28.4488C20.0898 28.48 20.2302 28.519 20.3083 28.5346C20.4097 28.5659 20.441 28.5268 20.441 28.3473C20.441 28.0195 20.1366 27.7698 19.6761 27.7229C19.0049 27.6605 18.1698 28.238 17.8888 28.9639C17.7873 29.2293 17.7873 29.2293 17.8185 28.8234C17.8732 28.2224 18.1385 27.6761 18.5756 27.2859C19.0049 26.9034 19.2937 26.7863 19.9024 26.7785C20.2146 26.7707 20.4332 26.8254 20.7219 26.9659ZM29.6976 26.9034C29.6741 26.9815 29.5493 27.4263 29.4088 27.9024C29.2761 28.3707 29.0576 28.9639 28.9327 29.2059C28.6283 29.7834 27.9727 30.5093 27.4498 30.8371C27.0985 31.0634 26.0605 31.4849 26.0058 31.4224C25.998 31.4146 26.1854 31.1961 26.4351 30.9385C26.9971 30.361 27.2234 30.0644 27.5824 29.4244C27.9337 28.8 28.1912 28.1834 28.3239 27.6371C28.3941 27.3249 28.4644 27.2078 28.6127 27.1532C28.9015 27.0439 28.9873 27.0673 28.8468 27.2234C28.5971 27.5044 28.7141 27.5044 29.0107 27.2234C29.4556 26.7941 29.7756 26.6537 29.6976 26.9034ZM51.1922 27.0985C51.1922 27.1298 51.2468 27.161 51.3093 27.161C51.481 27.161 51.4498 27.2937 51.278 27.3405C51.1844 27.3639 51.0907 27.4888 51.0439 27.6371C50.9893 27.84 50.9737 27.8634 50.9658 27.7229C50.958 27.6215 50.8722 27.4576 50.7551 27.3561C50.5678 27.1844 50.5678 27.1688 50.7161 27.122C50.8019 27.0985 50.8956 26.9971 50.9268 26.9112C50.9737 26.7473 50.9815 26.7473 51.0829 26.8878C51.1454 26.9659 51.1922 27.0595 51.1922 27.0985ZM24.1249 27.7541C24.3143 27.7763 24.3947 28.0073 24.2598 28.1422L24.1795 28.2224C23.9532 28.4488 23.6176 28.7454 23.4302 28.878L23.2782 28.9876C23.2016 29.0429 23.0946 28.9881 23.0946 28.8937C23.0946 28.6049 22.8058 27.6527 22.7044 27.5902C22.478 27.4498 22.6888 27.4341 23.1415 27.559C23.4224 27.6371 23.8673 27.7229 24.1249 27.7541ZM27.5434 27.5356C27.5434 27.7932 26.9893 28.8312 26.5444 29.4166C25.4049 30.9073 23.6566 31.8829 21.8302 32.0468C20.2771 32.1795 18.7317 31.2741 18.4039 30.0332C18.3259 29.76 18.3337 29.6195 18.4351 29.2605C18.5054 29.0263 18.638 28.761 18.7239 28.6829C18.88 28.5424 18.88 28.5424 18.88 28.878C18.88 29.8693 19.8478 30.6732 21.0419 30.6732C21.6585 30.6732 22.1034 30.5483 22.9776 30.1268C23.9219 29.6663 24.5776 29.1434 25.1629 28.3629C25.4049 28.0429 25.678 27.7463 25.7717 27.7151C25.959 27.6449 26.9971 27.5512 26.9971 27.598C26.9971 27.7229 26.4741 28.6205 26.1463 29.0732L25.7405 29.6195L26.1073 29.2293C26.4429 28.8702 26.5834 28.6751 27.1844 27.7229C27.4029 27.3795 27.5434 27.3015 27.5434 27.5356ZM56.0312 27.6995C56.0312 27.7776 55.9766 27.8868 55.9063 27.9415C55.8049 28.0273 55.758 28.0195 55.6254 27.879C55.4615 27.7151 55.4615 27.7073 55.5941 27.559C55.7034 27.4341 55.7737 27.4185 55.8829 27.481C55.9688 27.52 56.0312 27.6215 56.0312 27.6995ZM44.6049 28.2927C44.5346 28.402 44.3863 28.5424 44.2849 28.6127C44.0976 28.7376 44.0741 28.7298 43.9337 28.6049C43.8478 28.5268 43.7854 28.3785 43.7854 28.2615C43.801 28.0741 43.801 28.0663 43.8322 28.238C43.8556 28.3395 43.918 28.441 43.9805 28.4644C44.1366 28.5268 44.4722 28.2849 44.5737 28.0351C44.6439 27.8634 44.6673 27.8478 44.6907 27.9649C44.7141 28.0429 44.6673 28.1912 44.6049 28.2927ZM9.19414 28.6673C9.06927 28.8078 9.04585 28.8078 8.93658 28.6985C8.78049 28.5424 8.78049 28.519 8.95219 28.3473C9.07707 28.2146 9.09268 28.2146 9.20975 28.3629C9.32683 28.5034 9.32683 28.5268 9.19414 28.6673ZM54.6888 28.5424C54.6498 28.7376 54.4702 28.761 54.4702 28.5737C54.4702 28.48 54.5171 28.4098 54.5951 28.4098C54.6654 28.4098 54.7044 28.4644 54.6888 28.5424ZM11.4498 28.6205C11.4185 28.7922 11.278 28.7766 11.2468 28.6127C11.2312 28.5346 11.2702 28.4878 11.3483 28.4878C11.4263 28.4878 11.4654 28.5424 11.4498 28.6205ZM48.0624 30.3063C49.0849 32.0312 49.0771 33.6859 48.0546 34.8488C47.5551 35.4185 47.2273 35.5512 46.3532 35.5512C45.6039 35.5512 45.1122 35.4498 44.8312 35.2468C44.6829 35.1376 44.6829 35.1219 44.8078 34.9112C44.8859 34.7941 44.9717 34.7005 45.0107 34.7083C45.0498 34.7161 45.0576 34.6224 45.042 34.4898C45.0263 34.3649 45.0263 34.2634 45.0498 34.2634C45.0732 34.2634 45.2449 34.3493 45.4244 34.4585C46.0644 34.8254 46.9229 34.6693 47.3912 34.1151C47.6644 33.7873 47.9141 33.0849 47.9141 32.64C47.9141 32.1717 47.6176 31.3444 47.2819 30.8527C46.4468 29.6351 46.5093 29.7678 46.5093 29.1434C46.5093 28.9303 46.767 28.8235 46.9177 28.9743L47.1571 29.2137C47.5083 29.5727 47.9141 30.0644 48.0624 30.3063ZM52.7922 28.8C52.7922 28.8624 52.7298 28.9249 52.6595 28.9405C52.558 28.9561 52.519 28.9171 52.519 28.8C52.519 28.6829 52.558 28.6439 52.6595 28.6595C52.7298 28.6751 52.7922 28.7376 52.7922 28.8ZM14.5951 30.2829C15.8829 30.5249 16.8195 31.4537 17.1707 32.8429C17.3112 33.4127 17.319 33.561 17.2488 34.3181C17.202 34.7785 17.1239 35.3015 17.0615 35.4654C16.9678 35.7541 16.921 35.7854 16.5541 35.8634C16.0624 35.9805 14.9151 36.519 14.4078 36.8859C14.0332 37.159 14.0098 37.159 13.6585 37.0732C13.1668 36.9483 12.5893 36.6283 12.3161 36.3161C12.1912 36.1678 11.9805 35.8322 11.84 35.5668C11.6449 35.1766 11.5902 34.9659 11.559 34.4585C11.5434 34.1151 11.5668 33.6859 11.6137 33.5063C11.7307 33.0693 12.1366 32.4839 12.5346 32.1873C13.3229 31.5863 14.8605 31.5161 15.4615 32.0546C15.6176 32.1951 15.6254 32.1951 15.5395 32.039C15.3756 31.719 14.9229 31.4068 14.322 31.1961C14.1659 31.1337 12.5268 31.0946 9.5922 31.0634L5.78701 31.0303C5.59288 31.0286 5.52328 30.7731 5.68975 30.6732C6.11124 30.4264 6.54107 30.2371 7.02934 30.2261C8.98123 30.1822 14.1951 30.2067 14.5951 30.2829ZM58.1307 30.4234C58.2946 30.5405 58.5756 30.7044 58.7473 30.7824C58.9268 30.8683 59.0751 30.962 59.0751 31.001C59.0751 31.0322 57.0615 31.0634 54.5951 31.0634C52.1366 31.0634 50.0137 31.0868 49.8888 31.1102C49.7015 31.1493 49.6468 31.1259 49.5688 30.9463C49.4283 30.6341 49.4439 30.6029 49.8888 30.4078C50.1562 30.2844 50.4471 30.2202 50.7416 30.2196L57.4516 30.2057C57.6952 30.2051 57.9328 30.2813 58.1307 30.4234ZM46.7122 31.5005C46.8132 31.6824 46.7264 31.8335 46.531 31.9051C46.469 31.9279 46.4006 31.9522 46.3298 31.9766C45.9239 32.1249 45.8771 32.1249 45.9239 32.0156C45.9551 31.9376 45.9941 31.6254 46.0176 31.3132L46.0359 31.09C46.0473 30.9516 46.2144 30.8888 46.3141 30.9854C46.4546 31.1259 46.6341 31.3522 46.7122 31.5005ZM50.6615 31.7971C51.2702 31.9298 51.6995 32.1795 52.0429 32.6088C52.441 33.1161 52.5502 33.4517 52.5502 34.1463C52.5502 34.6927 52.5112 34.8488 52.3083 35.3015C51.6839 36.6283 50.1776 37.2917 48.7727 36.8546C48.5385 36.7766 48.3512 36.6907 48.359 36.6517C48.3668 36.6205 48.5073 36.4878 48.6634 36.3629C48.8819 36.1912 48.999 36.1522 49.1161 36.1912C49.2098 36.2302 49.5063 36.2537 49.7873 36.2458C50.3727 36.2458 50.9815 36.0117 51.2937 35.6839C51.7463 35.2156 51.9883 34.279 51.8244 33.6624C51.6371 32.9756 50.8566 32.2654 50.1854 32.1795C50.0058 32.1561 49.8654 32.1171 49.8654 32.0858C49.8654 32.0624 49.8419 31.961 49.8185 31.8595C49.7561 31.6488 49.8966 31.641 50.6615 31.7971ZM28.3239 32.039C28.3239 32.1015 28.4332 32.5307 28.558 32.9912C28.9951 34.5522 29.0419 36.4956 28.6751 37.8771C28.5424 38.3766 27.9805 39.5629 27.6215 40.078C27.239 40.6322 26.3258 41.4127 25.6312 41.7873C24.2185 42.5366 23.2819 43.3405 22.798 44.2146L22.715 44.3703C22.6815 44.4332 22.5857 44.4024 22.5951 44.3317C22.7902 42.8254 23.4068 41.9044 24.8897 40.8976C26.2244 39.9844 26.958 39.1649 27.4966 37.9941C27.9258 37.0732 28.0898 36.4644 28.16 35.5512C28.238 34.6146 28.1912 33.92 27.9727 32.999L27.9013 32.6976C27.8577 32.5135 27.9013 32.3195 28.0195 32.1717C28.2302 31.9063 28.3239 31.8595 28.3239 32.039ZM53.9629 32.0468L54.1039 32.0539C54.3534 32.0663 54.4721 32.3667 54.2985 32.5463C53.9239 32.9288 53.7912 33.0146 53.4946 33.0537C53.081 33.1161 52.7532 33.0537 52.7532 32.9054C52.7532 32.8507 52.6517 32.6634 52.5346 32.4995C52.1678 31.9922 52.16 32.0156 52.6907 32.0078C52.9639 32.0078 53.5337 32.0234 53.9629 32.0468ZM11.801 32.2498C11.7151 32.3512 11.5668 32.562 11.4732 32.718C11.3249 32.9756 11.2546 33.0146 11.0127 33.0224C10.8566 33.0224 10.6615 33.038 10.5834 33.0537C10.4976 33.0693 10.2478 32.8898 9.92 32.5776C9.73092 32.3969 9.85876 32.078 10.1202 32.078H11.725C11.8141 32.078 11.8609 32.1838 11.801 32.2498ZM19.7229 32.4917C20.5424 32.9132 21.159 33.038 22.1737 32.9834C23.0478 32.9366 24.0468 32.7649 24.4917 32.5776C24.6819 32.4975 24.7127 32.5674 24.5316 32.6664C24.413 32.7312 24.2613 32.8091 24.0937 32.8898C22.5561 33.6468 21.3307 33.7483 20.16 33.2019C19.7776 33.0224 19.2546 32.5698 19.0985 32.281C19.0127 32.1171 18.9815 32.1093 19.7229 32.4917ZM46.8527 32.8741C47.1493 33.2956 46.798 33.9512 46.2829 33.9512C45.9551 33.9512 45.7054 33.6702 45.76 33.3659C45.8771 32.8039 46.5795 32.4839 46.8527 32.8741ZM50.4898 33.9122C50.5678 34.1619 50.5522 34.2946 50.3961 34.6302C50.3615 34.7029 50.2117 34.8171 50.049 34.9155C49.755 35.0932 49.5928 34.9249 49.7015 34.599C49.7873 34.3493 49.881 33.959 49.9122 33.7405L49.927 33.6122C49.9413 33.488 50.0841 33.4252 50.1854 33.4985C50.3102 33.5922 50.4429 33.7795 50.4898 33.9122ZM24.9288 33.8498C24.6556 34.2868 24.1873 34.8566 23.8205 35.2156C23.3444 35.6761 21.9473 36.6829 21.7756 36.6829C21.7054 36.6907 21.5649 36.7376 21.4556 36.8078C21.2761 36.9171 21.2761 36.9171 21.4322 36.878C21.5337 36.8468 21.7678 36.8156 21.9707 36.7922C22.1658 36.7766 22.361 36.7376 22.4078 36.7141C22.5249 36.6439 23.719 36.2224 23.719 36.2537C23.719 36.3317 22.759 37.4712 22.4234 37.7912C21.9239 38.2673 21.5883 38.5015 20.6361 39.0634C18.6615 40.2107 17.959 40.6478 17.4673 41.0302C16.6946 41.6234 16.078 42.2868 15.6488 43.0049L15.6461 43.0092C15.5944 43.0923 15.4659 43.0475 15.4771 42.9502C15.602 41.8888 16.1873 40.8429 17.1941 39.8517C18.2634 38.8059 18.8644 38.439 21.2058 37.3854C21.518 37.2449 21.76 37.12 21.7444 37.1044C21.7366 37.0966 21.3541 37.1512 20.9093 37.2293C19.4732 37.479 17.8419 38.1502 16.8117 38.9229C14.6263 40.5463 13.5493 42.8878 14.002 45.0185C14.1659 45.799 14.5405 46.7044 14.9776 47.36C15.3132 47.8673 15.3366 47.922 15.1493 47.8049C14.5093 47.3912 13.8459 46.8215 13.5961 46.4624C13.44 46.2361 13.2995 46.0488 13.2761 46.0488C13.2605 46.0488 13.362 46.2517 13.4946 46.4937C13.8537 47.1259 14.4468 47.8907 14.9619 48.3746L15.1205 48.5221C15.1693 48.5675 15.1155 48.6459 15.0556 48.6166C14.2673 48.2419 13.6195 47.5863 12.9717 46.5327C12.6517 46.0176 12.6985 46.2439 13.0576 47.0244C13.3619 47.68 14.1424 48.7259 14.6498 49.1785L14.6588 49.1864C14.7096 49.2308 14.655 49.311 14.5951 49.28C14.0566 48.9912 13.3073 48.2654 12.8468 47.5785C12.519 47.079 12.2302 46.3376 12.0195 45.4244C11.9493 45.12 11.9415 45.1746 11.9727 45.7912C12.0429 47.2195 12.6361 48.5151 13.7522 49.6624C14.3219 50.2478 15.2351 50.9424 15.9298 51.3249C16.3434 51.559 16.3824 51.5902 16.1561 51.5434C14.8293 51.2859 13.1356 50.0058 12.3317 48.6478C11.9337 47.9766 11.5746 46.9307 11.4576 46.08C11.3795 45.5415 11.3873 45.2839 11.4966 44.5112C11.8088 42.3493 12.7532 40.5854 14.4937 38.9385C15.7034 37.7912 17.1395 36.9171 19.5434 35.8634C20.1054 35.6215 21.1044 35.1376 21.7678 34.7941L22.5764 34.3716C22.6515 34.3324 22.7238 34.4284 22.6654 34.4898C22.1971 34.9893 21.3776 35.5434 20.2146 36.1522C19.9415 36.3005 19.9415 36.3005 20.1678 36.2537C20.5971 36.1678 22.2595 35.3015 23.1571 34.7005C23.641 34.3727 24.0858 34.1073 24.1483 34.1073C24.2107 34.1073 24.4137 34.0059 24.5932 33.8732C25.0146 33.5844 25.1005 33.5766 24.9288 33.8498ZM8.01561 34.1854C8.34341 34.3883 8.60878 34.958 8.54634 35.3093C8.43707 35.879 7.97658 36.2927 7.43805 36.2927C6.86049 36.2927 6.2439 35.5746 6.34537 35.0205C6.50146 34.2088 7.35219 33.7795 8.01561 34.1854ZM57.2566 34.162C57.8107 34.4195 58.0215 35.0673 57.7483 35.6371C57.4673 36.2146 56.8117 36.441 56.2732 36.1522C55.5395 35.7541 55.5473 34.638 56.281 34.1854C56.5932 33.998 56.8976 33.9902 57.2566 34.162ZM26.0215 35.4498C25.639 36.9561 24.5776 38.8293 23.6019 39.7268C23.4849 39.8361 23.3522 39.9922 23.3132 40.078C23.2195 40.2576 23.3366 40.1639 24.1795 39.3756C25.038 38.5717 26.2166 37.0732 26.4507 36.4956C26.5054 36.3629 26.521 36.3551 26.521 36.4644C26.5288 36.6985 26.0527 37.7054 25.639 38.322C25.4283 38.642 24.9756 39.1883 24.64 39.5317C24.3044 39.8751 24.0312 40.1639 24.0312 40.1717C24.0312 40.2341 24.8429 39.6019 25.2878 39.1883C26.0683 38.478 26.8722 37.3541 27.2312 36.4644C27.4107 36.0117 27.4263 36.0898 27.2624 36.7141C26.9815 37.799 26.2088 39.1024 25.3424 39.9298C25.0771 40.1951 24.4839 40.679 24.0312 41.0224C22.3454 42.279 21.3307 43.3561 20.8 44.4488C20.4254 45.2137 20.2068 46.041 20.2068 46.6888C20.2146 47.8127 20.7298 49.0849 21.5493 49.9824L21.7543 50.2106C21.85 50.3171 21.7614 50.4851 21.6195 50.4663C21.1512 50.4039 20.8858 50.2868 20.5268 49.9824C20.2068 49.7171 20.2224 49.8185 20.5658 50.24C20.7219 50.4273 20.839 50.5912 20.8234 50.599C20.8078 50.6068 20.6205 50.6771 20.4097 50.7551L20.3566 50.7736C20.1493 50.8455 19.9203 50.8155 19.7385 50.6927C19.1454 50.279 18.4351 49.5063 18.1854 49.0068C17.9278 48.4761 17.7093 47.5239 17.7093 46.9229C17.7093 46.3532 17.9746 45.2059 18.2322 44.6439C18.3649 44.3629 18.638 43.9102 18.841 43.6293L18.9426 43.4888C18.9723 43.4477 18.9167 43.3992 18.88 43.4341C17.8263 44.441 17.0849 46.0332 17.0849 47.2976C17.0849 47.7502 17.2956 48.7415 17.5141 49.2878L17.5883 49.4731C17.6087 49.5242 17.5415 49.5642 17.5063 49.522C16.921 48.8351 16.5541 47.5629 16.6478 46.6029C16.8663 44.441 17.9278 42.9737 20.8312 40.8039C22.4 39.6254 23.7268 38.3454 24.4839 37.2761C25.0849 36.4254 25.6702 35.3405 25.9122 34.6146L25.9531 34.4969C25.9846 34.4063 26.1179 34.4252 26.1229 34.521C26.1385 34.7707 26.0917 35.1844 26.0215 35.4498ZM47.1727 36.9717C47.5083 37.2995 47.6176 37.4556 47.5005 37.4166C47.1961 37.3307 46.5873 36.9717 46.2907 36.7141L46.2558 36.6839C46.1682 36.6082 46.2218 36.4644 46.3376 36.4644C46.6419 36.4644 46.7122 36.5112 47.1727 36.9717ZM46.642 37.9083C47.2507 38.2361 47.8205 38.3922 48.5854 38.4468C49.678 38.5327 50.9659 38.1346 51.6059 37.5102C51.9415 37.1746 51.9571 37.1902 51.7307 37.6429C51.3093 38.4702 50.7083 38.9541 49.7873 39.1961L49.6424 39.234C49.5878 39.2483 49.5981 39.3288 49.6546 39.3288C49.8576 39.3366 50.0215 39.3678 50.0215 39.4146C50.0215 39.4537 49.7717 39.5629 49.4673 39.6566C48.6556 39.8985 47.8829 39.8361 47.0946 39.4615C46.5249 39.1961 46.3298 39.04 46.6888 39.1415C46.8215 39.1805 46.8371 39.1727 46.7434 39.1102C46.681 39.0634 46.5717 39.0478 46.5093 39.0634C46.3298 39.118 45.7756 38.5093 45.4946 37.9551C45.3073 37.5649 45.1044 36.8781 45.1044 36.6205C45.1044 36.5971 45.3463 36.8234 45.6507 37.1278C45.9473 37.4244 46.3922 37.7834 46.642 37.9083ZM11.6215 38.6654V39.1921C11.6215 39.5154 11.5265 39.8316 11.3483 40.1015C11.1922 40.3278 11.0361 40.5854 10.9971 40.6868C10.9502 40.7961 10.9268 40.3512 10.9424 39.3756C10.958 38.1581 10.9893 37.838 11.1063 37.5883L11.1308 37.5337C11.184 37.4147 11.3382 37.383 11.4341 37.4712C11.6137 37.6429 11.6215 37.6898 11.6215 38.6654ZM44.0819 37.5649C44.2615 38.1034 45.042 39.3054 45.5493 39.8205C46.1346 40.4137 46.4546 40.64 47.8361 41.4439C49.5141 42.4273 50.4039 43.5122 50.6537 44.8781C50.7551 45.479 50.6771 46.322 50.4507 46.9463C50.429 47.0086 50.337 46.9937 50.3359 46.9278L50.3337 46.7902C50.3337 46.2673 50.2556 45.9395 49.9668 45.1668C49.7717 44.6361 49.1473 43.7073 48.9912 43.7073C48.9444 43.7073 48.9678 43.7854 49.0537 43.879C49.1317 43.9805 49.0693 43.9415 48.9132 43.7932C48.707 43.6066 48.6222 43.327 48.39 43.1739C48.3624 43.1557 48.3337 43.1382 48.3044 43.122C48.2029 43.0595 48.2029 43.0673 48.3044 43.2C48.4215 43.3405 48.4137 43.3405 48.2107 43.2078C48.0156 43.0751 47.8829 42.9268 48.0702 43.0439C48.1171 43.0673 48.1483 43.0751 48.1483 43.0517C48.1483 43.0283 48.0702 42.9737 47.9844 42.919C47.8517 42.8488 47.8283 42.8566 47.8751 42.9424C47.9063 42.9971 47.8595 42.9659 47.7659 42.8644C47.6722 42.7707 47.4146 42.599 47.1883 42.4898C46.3844 42.0839 45.5649 41.4985 45.1278 41.0224C44.8858 40.7649 44.7141 40.5932 44.7454 40.64C44.8858 40.882 44.6985 40.7102 44.48 40.3824C44.0741 39.7971 43.7776 38.8761 43.7776 38.2205C43.7776 37.3307 43.9102 37.0498 44.0819 37.5649ZM30.8527 38.9385C31.0322 39.1961 31.5551 39.8985 32.0156 40.4995C33.7093 42.6927 36.6595 45.8849 35.4341 44.199C35.0283 43.6371 34.3961 42.5756 34.0058 41.7951C33.7405 41.2566 33.7561 41.2722 34.7395 42.4195C35.1141 42.8488 35.6839 43.4654 36.0117 43.7854L36.1366 43.907C36.3052 44.0712 36.5875 43.9422 36.5737 43.7073C36.5502 43.3483 36.5658 42.9893 36.6049 42.9112C36.7063 42.7161 37.6819 41.9122 37.8146 41.9122C37.9083 41.9122 37.9239 42.2166 37.9161 43.9961C37.9005 45.9395 37.9083 46.1268 38.0644 46.6029C38.158 46.8839 38.3454 47.2663 38.478 47.4537C38.6732 47.719 38.6966 47.7971 38.6107 47.8517C37.0341 48.8976 34.0449 50.1073 31.7815 50.6146C29.9863 51.0283 27.9024 51.0595 27.0985 50.6927C26.6458 50.4898 25.7561 49.6468 25.1785 48.882L25.0528 48.7134C24.9158 48.5298 24.9398 48.2723 25.1083 48.1171C25.2644 47.9688 25.4283 47.8439 25.4595 47.8439C25.4907 47.8439 25.6078 48.0312 25.7093 48.2654C25.881 48.6478 26.0605 48.882 26.0605 48.7259C26.0605 48.6946 25.9824 48.4449 25.8888 48.1795C25.788 47.8819 25.8601 47.5529 26.0762 47.3247L26.2868 47.1024C26.958 46.4 27.4263 45.6898 27.7854 44.8624C27.8807 44.6371 28.2007 44.6389 28.2935 44.8654L28.3083 44.9015C28.4566 45.2527 28.7063 45.9083 28.8702 46.361C29.0341 46.8137 29.2371 47.3522 29.3307 47.5551C29.5024 47.9454 29.9551 48.6556 30.0097 48.6088C30.0488 48.5698 29.7678 47.04 29.5805 46.3141C29.2605 45.0185 29.0888 43.7698 29.0497 42.2712C29.0185 41.1707 29.0263 40.8117 29.0966 40.8507C29.159 40.8898 29.1824 40.7961 29.1824 40.5385C29.1824 40.1249 29.3385 39.1805 29.4088 39.1805C29.4322 39.1805 29.6195 39.4302 29.8224 39.719C30.6107 40.8585 31.6019 42.0605 32.4527 42.919C32.9444 43.4185 33.358 43.7776 33.3737 43.7307C33.3971 43.6761 33.2098 43.3795 32.9678 43.0595C32.0702 41.8654 31.0244 40.0078 30.5951 38.8293C30.3922 38.2907 30.4156 38.2985 30.8527 38.9385ZM42.841 39.1727C42.841 39.4224 43.4419 40.5229 43.8478 41.0224C44.2771 41.5532 44.9171 42.0683 45.76 42.5522C46.0644 42.7317 46.5951 43.0361 46.9307 43.2312C47.6644 43.6527 48.3356 44.2458 48.5307 44.6361C48.7102 44.9873 48.8273 45.6273 48.7024 45.5493C48.6556 45.518 48.6166 45.4478 48.6166 45.3854C48.6166 45.1746 47.9922 44.5034 47.5083 44.199C46.7902 43.7463 46.4937 43.6293 45.7132 43.4732C44.9795 43.3171 44.6127 43.1454 43.9493 42.6146C43.4498 42.2166 42.8332 41.358 42.6068 40.7649C42.4585 40.3668 42.4585 40.039 42.599 40.039C42.6302 40.039 42.6459 39.9376 42.6224 39.8049C42.5834 39.5083 42.6693 39.0244 42.7629 39.0244C42.8098 39.0244 42.841 39.0868 42.841 39.1727ZM9.74049 43.2156C9.73268 45.44 9.7561 47.3912 9.78732 47.5473C9.89659 48.1093 9.73268 47.9376 9.06927 46.798C8.99902 46.681 8.97561 45.6976 8.97561 43.1063V39.9826C8.97561 39.7298 9.1173 39.4984 9.34244 39.3834C9.59713 39.2463 9.73723 39.33 9.73919 39.6192C9.74373 40.2887 9.74599 41.6533 9.74049 43.2156ZM7.78146 42.1776C7.79707 43.6995 7.77366 44.7298 7.73463 44.6829C7.69561 44.6361 7.5239 44.2537 7.34439 43.8244C7.13299 43.3088 7.02179 42.7576 7.01672 42.2004L7.00878 41.3268C7.00097 40.3824 7.00097 39.5707 7.00878 39.5239C7.01658 39.4693 7.12585 39.4615 7.39122 39.5161C7.60555 39.5617 7.75946 39.75 7.76145 39.9692L7.78146 42.1776ZM56.8429 43.7463C56.7425 43.9548 56.4293 43.8832 56.4293 43.6519V42.0917L56.4224 39.8788C56.4219 39.706 56.5474 39.5587 56.718 39.5317C56.8741 39.5005 57.0459 39.4693 57.0849 39.4615C57.1317 39.4459 57.1785 40.078 57.2098 41.1629L57.2273 41.9384C57.2414 42.5627 57.1098 43.1818 56.8429 43.7463ZM50.4117 41.2098C50.4117 41.5063 50.3961 41.7561 50.3727 41.7561C50.3102 41.7561 49.5219 40.9834 49.561 40.96C49.5767 40.9474 49.6964 40.9006 49.8388 40.8482C50.1806 40.7223 50.4117 40.8455 50.4117 41.2098ZM43.0985 42.9737C43.3093 43.161 43.7073 43.4654 43.9805 43.6449C44.2537 43.8166 44.48 43.9727 44.48 43.9883C44.48 44.0351 43.6527 43.7229 43.3171 43.5512C42.5522 43.1688 41.9122 42.3337 41.7795 41.561C41.7327 41.2566 41.7405 41.2722 42.2244 41.9356C42.4898 42.318 42.8878 42.7863 43.0985 42.9737ZM43.5434 45.1902C47.6332 46.2361 49.2332 47.0556 50.3337 48.6634C50.599 49.0537 50.5912 49.0537 49.9668 48.4605C49.358 47.8985 48.64 47.36 48.3278 47.2429C48.2498 47.2195 48.4371 47.4537 48.7415 47.7815C49.3893 48.4605 49.7249 48.9366 49.9434 49.4595L49.969 49.5181C49.9891 49.5639 49.9271 49.6006 49.8966 49.561C49.5532 49.1161 48.2966 47.8985 47.8361 47.5629C47.0088 46.9541 46.9463 46.9698 47.5941 47.6098C48.6868 48.7024 49.2254 49.522 49.4439 50.4663C49.5766 51.0361 49.5454 51.2546 49.4127 50.7161C49.3268 50.3961 48.6244 49.1941 48.6166 49.3737C48.6166 49.4127 48.6478 49.4829 48.6868 49.5298C48.8273 49.6859 49.0849 50.5132 49.1317 50.9893C49.1941 51.5746 49.0615 52.0585 48.6946 52.6049C48.6309 52.6974 48.4858 52.6437 48.4977 52.532L48.5073 52.441C48.601 51.4732 48.1873 50.0293 47.4693 48.8195C47.0478 48.1171 46.0566 47.0322 45.5024 46.6732C44.9639 46.3376 44.9405 46.3844 45.3932 46.8449C46.1971 47.6722 46.8371 48.8898 47.0556 50.0059C47.1961 50.7083 47.118 52.2068 46.9151 52.839C46.5951 53.8146 45.8771 54.7668 44.9873 55.4068C44.924 55.4517 44.8476 55.3715 44.8953 55.3104L45.0029 55.1727C45.3776 54.7044 46.0332 53.5024 46.158 53.0732C46.1893 52.9639 46.0254 53.1902 45.7912 53.5727C45.2527 54.4702 44.2459 55.5083 43.481 55.961C43.1688 56.1405 42.8956 56.2732 42.8722 56.2498C42.8488 56.2263 43.0361 56.0546 43.2859 55.8595C44.6205 54.8371 45.6507 53.1902 46.002 51.5434C46.1268 50.9502 46.158 50.1698 46.041 50.6146C46.0098 50.7395 45.9239 51.1141 45.8537 51.4341C45.6819 52.199 45.0654 53.44 44.519 54.119C44.0273 54.7434 43.1454 55.5707 42.5522 55.9766C42.1776 56.2341 41.1551 56.6478 41.0849 56.5698C41.0693 56.5541 41.2878 56.359 41.5766 56.1405C42.279 55.602 43.2312 54.6419 43.6683 54.0254C44.6361 52.6751 45.198 50.6849 45.0263 49.2644C44.8234 47.6956 44.0351 46.439 42.7551 45.682C42.2712 45.3932 41.28 45.1122 40.7024 45.1044C40.3902 45.1044 40.3434 45.081 40.4605 45.0263C40.7493 44.8937 42.8176 45.0029 43.5434 45.1902ZM39.3054 46.5483L39.3528 46.5814C39.5792 46.7395 39.598 47.0678 39.3912 47.2507C39.1649 47.4458 38.9385 47.6098 38.8839 47.6098C38.7902 47.6098 38.5483 46.6732 38.5483 46.2829C38.5483 46.0098 38.5249 46.0019 39.3054 46.5483ZM41.8576 47.0088C42.0162 47.1424 42.0244 47.3838 41.8753 47.5279L41.4673 47.922C39.3834 49.92 36.6907 51.2859 33.8576 51.7776C33.1551 51.9024 31.6332 51.9337 31.5707 51.8322C31.5473 51.7932 31.8361 51.6917 32.2107 51.598C32.5854 51.5044 33.1863 51.3249 33.5532 51.2C36.3785 50.2556 38.2517 49.2566 40.3356 47.5863C40.9132 47.1259 41.4283 46.7512 41.4751 46.7512C41.5298 46.7512 41.7015 46.8683 41.8576 47.0088ZM42.8878 48.2888C42.9502 48.4215 42.9971 48.5932 42.9971 48.679C42.9971 49.0771 41.881 50.4663 40.8585 51.3561C38.8449 53.0966 35.2702 54.759 32.64 55.1727C32.2966 55.2273 32.2419 55.2195 32.3122 55.1337C32.359 55.0712 32.4449 55.0244 32.4917 55.0244C32.6322 55.0244 33.7327 54.478 33.6937 54.4312C33.6702 54.4078 33.4049 54.4468 33.1161 54.5171C32.078 54.759 30.5561 54.8215 28.2849 54.72C26.4663 54.6341 26.0058 54.6419 24.921 54.7434C23.2585 54.9073 21.7366 55.3054 21.1278 55.7346C20.878 55.9141 20.8702 55.9063 21.0263 55.5941C21.2917 55.0634 22.3141 54.2907 22.9698 54.1346C23.3288 54.0488 23.1727 54.0176 22.72 54.0956C22.0098 54.2049 21.4868 54.3844 21.0732 54.6654C20.8546 54.8137 20.6751 54.9073 20.6751 54.8761C20.6751 54.7122 21.3385 54.0878 21.7444 53.8771C23.1727 53.12 25.2097 52.8937 27.3093 53.2605C29.4322 53.6351 31.7424 53.5961 33.7951 53.1512C35.1844 52.8546 37.2137 52.0507 38.5483 51.278C39.5083 50.7239 40.8741 49.6624 41.8263 48.7181C42.3337 48.2185 42.7317 47.8751 42.7473 47.9376C42.7629 47.9922 42.8254 48.1483 42.8878 48.2888ZM43.6215 49.7249C43.2624 50.4351 42.599 51.481 42.0917 52.1444L41.9645 52.3125C41.9322 52.3551 41.9902 52.4073 42.0293 52.3707C42.24 52.1756 42.7239 51.7229 43.1063 51.3561C43.6137 50.8644 43.7776 50.7395 43.7385 50.8878C43.6371 51.2234 43.4185 51.6137 43.0517 52.0976C42.5834 52.722 41.1941 54.1737 41.0459 54.1971C40.8663 54.2205 40.7259 54.3219 40.7727 54.4C40.882 54.5795 38.72 56.0312 37.1668 56.8117C34.7863 58.0058 33.1707 58.4351 30.8215 58.5132C28.5112 58.5834 27.2312 58.3649 26.0371 57.6859C25.561 57.4205 25.5219 57.3815 25.6858 57.3424C25.881 57.2878 28.0585 57.0146 28.8702 56.9366C29.5337 56.8741 31.4537 56.5385 32.3434 56.3356C33.3736 56.1015 35.4419 55.5161 35.8322 55.3444C39.0322 53.9551 41.5532 52.1522 43.239 50.0527C43.481 49.7405 43.7073 49.4127 43.7385 49.3268C43.7749 49.2177 43.827 49.2531 43.7847 49.3601C43.7467 49.4564 43.6891 49.5855 43.6215 49.7249ZM23.9141 51.801C24.4995 51.9102 25.8029 52.3161 25.8966 52.4176C25.92 52.4488 25.7015 52.441 25.3971 52.4176C25.1005 52.3863 24.4137 52.3941 23.8751 52.441C22.08 52.5971 20.6985 53.1044 20.0039 53.8849C19.5356 54.4 19.2078 54.9776 19.1454 55.399L19.144 55.4074C19.1286 55.5041 18.9963 55.5203 18.958 55.4302C18.7551 54.9776 18.6224 54.2673 18.6849 53.9473C18.8956 52.839 20.0741 51.9024 21.5649 51.6605C22.0644 51.5824 23.1024 51.6449 23.9141 51.801ZM43.278 52.9795C43.1688 53.1902 42.8332 53.6195 42.5288 53.9395C41.9668 54.5249 41.8966 54.5327 42.3258 53.9707C42.7317 53.4322 43.4029 52.6049 43.4341 52.6049C43.4576 52.6049 43.3795 52.7766 43.278 52.9795Z" fill="#C5AD7F"/>
<path d="M28.2849 13.6585C28.2068 13.7444 28.1756 13.8146 28.2146 13.8146C28.2537 13.8146 28.3317 13.7444 28.3863 13.6585C28.441 13.5727 28.4722 13.5024 28.4566 13.5024C28.441 13.5024 28.3629 13.5727 28.2849 13.6585Z" fill="#C5AD7F"/>
<path d="M35.0907 13.159C35.0346 13.1984 34.9809 13.237 34.9309 13.2736C34.694 13.4471 34.7388 13.5069 34.9737 13.3307C35.161 13.1902 35.4029 13.0107 35.5044 12.9405C35.6233 12.864 35.586 12.8343 35.4667 12.9102C35.3658 12.9744 35.233 13.0629 35.0907 13.159Z" fill="#C5AD7F"/>
<path d="M47.2976 16.0858C47.4302 16.2966 47.5551 16.4605 47.5785 16.4371C47.6176 16.398 47.1571 15.6878 47.0946 15.6878C47.0712 15.6878 47.1649 15.8673 47.2976 16.0858Z" fill="#C5AD7F"/>
<path d="M20.8312 21.8146C20.8312 21.8771 20.8468 21.9317 20.8624 21.9317C20.878 21.9317 20.9093 21.8771 20.9405 21.8146C20.9639 21.7522 20.9483 21.6976 20.9093 21.6976C20.8624 21.6976 20.8312 21.7522 20.8312 21.8146Z" fill="#C5AD7F"/>
<path d="M23.4849 25.9902C22.8995 26.0371 22.9619 26.0449 23.9766 26.0527C24.6088 26.0605 25.1239 26.0449 25.1239 26.0059C25.1239 25.9356 24.3824 25.9278 23.4849 25.9902Z" fill="#C5AD7F"/>
<path d="M25.2644 25.9668C25.2694 25.969 25.2745 25.9708 25.2797 25.9725C25.3678 26.0001 25.4031 25.9116 25.3112 25.92C25.2254 25.92 25.2019 25.9434 25.2644 25.9668Z" fill="#C5AD7F"/>
<path d="M42.9971 29.0029C42.9971 29.0576 43.7073 29.362 43.7463 29.3307C43.7619 29.3151 43.598 29.2215 43.3873 29.1356C43.1688 29.042 42.9971 28.9873 42.9971 29.0029Z" fill="#C5AD7F"/>
<path d="M30.5873 30.8683C30.5873 30.8839 30.6341 30.9307 30.6888 30.9776C30.7668 31.04 30.798 31.0322 30.798 30.962C30.798 30.8995 30.7512 30.8527 30.6888 30.8527C30.6341 30.8527 30.5873 30.8605 30.5873 30.8683Z" fill="#C5AD7F"/>
<path d="M30.8215 31.1649C30.8215 31.1805 30.9151 31.3132 31.0244 31.4615C31.2351 31.7346 31.2429 31.719 31.0634 31.3522C30.9697 31.1805 30.8215 31.0634 30.8215 31.1649Z" fill="#C5AD7F"/>
<path d="M30.5873 32.2029C30.5873 32.2888 30.9619 32.8585 31.0244 32.8585C31.0478 32.8585 30.9932 32.7258 30.8917 32.5619C30.681 32.2107 30.5873 32.1015 30.5873 32.2029Z" fill="#C5AD7F"/>
<path d="M39.3444 32.5229C39.2039 32.7727 39.4224 33.2956 39.6176 33.2098C39.6956 33.1707 40.0156 33.0537 40.3278 32.9366C40.8741 32.7415 40.9756 32.6244 40.6166 32.6244C40.5229 32.6244 40.281 32.7102 40.0858 32.8117C39.6878 33.0224 39.6098 32.9912 39.4927 32.5698C39.4302 32.3512 39.4302 32.3512 39.3444 32.5229Z" fill="#C5AD7F"/>
<path d="M42.0293 33.6234C42.0137 33.6546 42.0215 33.7327 42.0527 33.7873C42.0995 33.8576 42.1307 33.842 42.162 33.7249C42.201 33.5688 42.1073 33.4985 42.0293 33.6234Z" fill="#C5AD7F"/>
<path d="M41.1239 34.1932C40.8897 34.2244 40.6478 34.24 40.5932 34.2244C40.398 34.1541 40.5463 34.3805 40.7961 34.521C41.0302 34.6615 41.0458 34.6615 41.3424 34.5054C41.5063 34.4195 41.6858 34.2946 41.7405 34.2322C41.8654 34.0917 41.8263 34.0839 41.1239 34.1932Z" fill="#C5AD7F"/>
<path d="M40.5151 34.7785C40.5159 34.7793 40.5167 34.7801 40.5175 34.7809C40.6148 34.8774 40.6726 34.8086 40.5541 34.7395C40.3902 34.638 40.3902 34.6459 40.5151 34.7785Z" fill="#C5AD7F"/>
<path d="M41.4361 34.7942C41.4361 34.8254 41.4751 34.8956 41.5219 34.9424C41.5766 34.9971 41.5922 35.122 41.561 35.239C41.5219 35.4029 41.4673 35.442 41.2956 35.4263C41.1785 35.4107 40.9756 35.4654 40.8351 35.5356C40.6322 35.6449 40.5776 35.6527 40.5229 35.5668C40.4917 35.5044 40.3746 35.4029 40.2654 35.3327C40.0937 35.2234 39.9766 35.2156 39.1727 35.3093C38.2907 35.4107 37.4556 35.6683 37.4556 35.8478C37.4556 35.8946 37.6117 35.9024 37.8693 35.8712C39.36 35.6839 39.758 35.7151 40.281 36.0742C40.5463 36.2537 40.6634 36.2537 41.0146 36.0429C41.2878 35.879 41.3112 35.879 41.5298 36.0039C41.8185 36.1678 41.9356 36.1756 41.8732 36.0039C41.8419 35.9337 41.7795 35.6215 41.7327 35.3015C41.678 34.9112 41.6156 34.7317 41.5454 34.7317C41.4829 34.7317 41.4361 34.7629 41.4361 34.7942Z" fill="#C5AD7F"/>
<path d="M38.7044 37.0498C38.7044 37.0732 38.7668 37.1746 38.8449 37.2605C38.9775 37.4166 38.9775 37.4166 38.7668 37.2839C38.3297 37.0107 38.5639 37.2761 39.04 37.6039C39.6175 37.9941 39.9844 38.08 40.359 37.9005L40.3972 37.882C40.4288 37.8666 40.4563 37.9092 40.4293 37.9317C40.3001 38.041 40.3735 38.1744 40.5083 38.0721C40.6014 38.0014 40.7168 37.8839 40.8507 37.721C41.1317 37.3854 41.1317 37.3776 40.921 37.5102L40.9065 37.5197C40.8594 37.5506 40.8039 37.4946 40.8351 37.4478C40.9054 37.3307 40.9678 37.2137 40.9678 37.1824C40.9678 37.1512 40.7727 37.1512 40.5307 37.1746C40.281 37.1981 39.8205 37.1746 39.4615 37.1044C38.7278 36.9795 38.7044 36.9795 38.7044 37.0498Z" fill="#C5AD7F"/>
<path d="M13.6429 32.2732C13.1278 32.4371 12.5268 32.999 12.3707 33.4595C11.8478 34.9815 13.0498 36.5502 14.5717 36.3395C15.2195 36.2537 15.68 36.0429 15.9922 35.6917C16.3512 35.2858 16.4449 34.9502 16.4683 34.0995C16.4839 33.3737 16.4605 33.319 15.8283 32.7024C15.3912 32.281 14.2907 32.0624 13.6429 32.2732ZM14.6263 33.3268C14.9698 33.4595 15.2117 33.7795 15.2117 34.1229C15.2117 34.5366 15.04 34.841 14.7122 34.9971C14.3688 35.161 14.2907 35.1532 13.9863 34.9658C13.3463 34.5756 13.3463 33.6937 13.9785 33.3815C14.2829 33.2332 14.3532 33.2254 14.6263 33.3268Z" fill="#C5AD7F"/>
<path d="M21.479 37.9395C21.1434 38.1502 21.1512 38.1971 21.4946 38.0332C21.6429 37.9629 21.7678 37.8771 21.7678 37.838C21.7678 37.7522 21.7678 37.7522 21.479 37.9395Z" fill="#C5AD7F"/>
<path d="M19.0439 39.1727C18.8098 39.2898 18.6146 39.4459 18.599 39.5161C18.5912 39.602 18.7083 39.5551 18.9815 39.36C19.6683 38.8761 19.6839 38.8449 19.0439 39.1727Z" fill="#C5AD7F"/>
<path d="M20.6829 42.7473C19.8478 43.2468 18.958 44.3473 18.5522 45.401C18.0839 46.6107 18.0917 47.7659 18.5912 48.8039C19.0283 49.7249 19.6059 50.2946 19.2234 49.4361C18.4663 47.719 18.7395 45.6507 19.9571 43.8556C20.3317 43.2937 20.6283 42.9737 21.0966 42.6302C21.4478 42.3649 21.2293 42.4273 20.6829 42.7473Z" fill="#C5AD7F"/>
<path d="M44.6361 39.5707C44.6829 39.6566 44.7376 39.7268 44.761 39.7268C44.7766 39.7268 44.761 39.6566 44.7141 39.5707C44.6673 39.4849 44.6127 39.4146 44.5893 39.4146C44.5737 39.4146 44.5893 39.4849 44.6361 39.5707Z" fill="#C5AD7F"/>
<path d="M44.9483 40.0702C44.9483 40.0858 45.0107 40.1483 45.0888 40.2029C45.2059 40.3044 45.2137 40.2966 45.1122 40.1717C45.0107 40.0468 44.9483 40.0078 44.9483 40.0702Z" fill="#C5AD7F"/>
<path d="M48.6946 43.5044C48.6946 43.52 48.7571 43.5824 48.8351 43.6371C48.9522 43.7385 48.96 43.7307 48.8585 43.6059C48.7571 43.481 48.6946 43.4419 48.6946 43.5044Z" fill="#C5AD7F"/>
<path d="M31.2117 40C31.2117 40.039 31.2507 40.1327 31.2898 40.1951C31.3288 40.2576 31.3678 40.2732 31.3678 40.2341C31.3678 40.1873 31.3288 40.1015 31.2898 40.039C31.2507 39.9766 31.2117 39.9532 31.2117 40Z" fill="#C5AD7F"/>
<path d="M30.4312 41.7405C30.4312 41.8966 31.5707 43.3951 31.7893 43.5278C31.8361 43.559 31.7502 43.4263 31.5941 43.239C31.4458 43.0439 31.1493 42.6302 30.9385 42.3181C30.5483 41.7405 30.4312 41.6078 30.4312 41.7405Z" fill="#C5AD7F"/>
<path d="M30.4078 43.1844C30.3844 43.2468 30.5483 43.4888 30.798 43.7541C31.0868 44.0663 31.1493 44.1132 30.9932 43.9024C30.8683 43.7307 30.6966 43.4732 30.6107 43.3327C30.5015 43.1532 30.439 43.1063 30.4078 43.1844Z" fill="#C5AD7F"/>
<path d="M29.8771 44.0742C29.9161 44.1522 30.1268 44.4098 30.3532 44.6439L30.7512 45.0732L30.3063 44.5034C29.8693 43.9493 29.7288 43.8088 29.8771 44.0742Z" fill="#C5AD7F"/>
<path d="M29.8068 45.2371C29.8068 45.3307 30.1034 45.8146 30.1658 45.8146C30.1893 45.8146 30.1268 45.682 30.0332 45.5181C29.8146 45.159 29.8068 45.1512 29.8068 45.2371Z" fill="#C5AD7F"/>
<path d="M42.6849 40.2029C42.6849 40.4761 43.2702 41.4751 43.6761 41.8966L44.1054 42.3415L43.6995 41.8341C43.481 41.5532 43.161 41.0458 42.9971 40.7024C42.8254 40.359 42.6849 40.1327 42.6849 40.2029Z" fill="#C5AD7F"/>
</svg>
