<svg width="24" height="24" viewBox="0 0 24 24" fill="none" xmlns="http://www.w3.org/2000/svg">
<circle cx="12" cy="12" r="12" fill="#C5AD7F"/>
<path d="M6 11.3333H7.33333M7.33333 11.3333V8.00001C7.33333 7.26363 7.93029 6.66667 8.66667 6.66667H15.3333C16.0697 6.66667 16.6667 7.26363 16.6667 8.00001V11.3333M7.33333 11.3333H16.6667M18.3333 11.3333H16.6667" stroke="#2A2F4F" stroke-width="1.5" stroke-linecap="round" stroke-linejoin="round"/>
<path d="M8.66675 17.3333C9.77132 17.3333 10.6667 16.4379 10.6667 15.3333C10.6667 14.2288 9.77132 13.3333 8.66675 13.3333C7.56218 13.3333 6.66675 14.2288 6.66675 15.3333C6.66675 16.4379 7.56218 17.3333 8.66675 17.3333Z" stroke="#2A2F4F" stroke-width="1.5" stroke-linecap="round" stroke-linejoin="round"/>
<path d="M15.3333 17.3333C16.4378 17.3333 17.3333 16.4379 17.3333 15.3333C17.3333 14.2288 16.4378 13.3333 15.3333 13.3333C14.2287 13.3333 13.3333 14.2288 13.3333 15.3333C13.3333 16.4379 14.2287 17.3333 15.3333 17.3333Z" stroke="#2A2F4F" stroke-width="1.5" stroke-linecap="round" stroke-linejoin="round"/>
<path d="M10.6667 14.6667H13.3334" stroke="#2A2F4F" stroke-width="1.5" stroke-linecap="round" stroke-linejoin="round"/>
</svg>
