<svg width="36" height="36" viewBox="0 0 36 36" fill="none" xmlns="http://www.w3.org/2000/svg">
<g clip-path="url(#clip0_382_1631)">
<circle cx="18" cy="18" r="18" fill="#C5AD7F"/>
<path d="M22.0415 8H13.9585C12.3785 8.0012 10.8637 8.62933 9.74652 9.74644C8.62935 10.8636 8.0012 12.3783 8 13.9582V22.0409C8.00096 23.6209 8.62901 25.1359 9.7462 26.2532C10.8634 27.3706 12.3784 27.9988 13.9585 28H22.0415C23.6215 27.9986 25.1364 27.3702 26.2535 26.253C27.3707 25.1357 27.9988 23.6208 28 22.0409V13.9582C27.9993 12.3782 27.3713 10.8631 26.254 9.74591C25.1367 8.62869 23.6216 8.00072 22.0415 8ZM25.989 22.0409C25.9888 23.0877 25.5728 24.0916 24.8326 24.8318C24.0923 25.572 23.0884 25.9879 22.0415 25.9882H13.9585C13.4401 25.9882 12.9268 25.8861 12.448 25.6877C11.9691 25.4893 11.534 25.1985 11.1675 24.832C10.801 24.4654 10.5103 24.0303 10.3121 23.5514C10.1138 23.0725 10.0118 22.5592 10.0119 22.0409V13.9582C10.0118 13.4399 10.1138 12.9267 10.3121 12.4478C10.5104 11.969 10.8011 11.5339 11.1676 11.1674C11.5341 10.8009 11.9692 10.5103 12.448 10.312C12.9269 10.1137 13.4402 10.0117 13.9585 10.0118H22.0415C23.0882 10.0121 24.0918 10.4279 24.8319 11.1679C25.572 11.908 25.9878 12.9116 25.9881 13.9582L25.989 22.0409Z" fill="#2A2F4F"/>
<path d="M18.3534 12.7682C15.4 12.7682 13 15.1692 13 18.1216C13 21.0741 15.4009 23.4751 18.3534 23.4751C21.3059 23.4751 23.7068 21.0741 23.7068 18.1216C23.7068 15.1692 21.3068 12.7682 18.3534 12.7682ZM18.3534 21.3922C17.486 21.3924 16.6541 21.0479 16.0406 20.4346C15.4272 19.8214 15.0825 18.9895 15.0824 18.1221C15.0822 17.2547 15.4267 16.4228 16.04 15.8093C16.6532 15.1959 17.4851 14.8512 18.3525 14.8511C19.2199 14.8509 20.0518 15.1954 20.6653 15.8087C21.2787 16.4219 21.6234 17.2538 21.6235 18.1212C21.6237 18.9886 21.2792 19.8205 20.6659 20.434C20.0527 21.0474 19.2208 21.3921 18.3534 21.3922ZM23.7181 11.5249C23.9718 11.5251 24.2196 11.6005 24.4305 11.7415C24.6413 11.8826 24.8056 12.0829 24.9025 12.3173C24.9995 12.5516 25.0248 12.8095 24.9753 13.0583C24.9258 13.307 24.8036 13.5355 24.6243 13.7149C24.4449 13.8942 24.2164 14.0164 23.9677 14.0659C23.7189 14.1154 23.4611 14.0901 23.2267 13.9931C22.9923 13.8961 22.792 13.7319 22.6509 13.521C22.5099 13.3102 22.4345 13.0623 22.4344 12.8087C22.4344 12.1009 22.9144 11.5249 23.7181 11.5249Z" fill="#2A2F4F"/>
</g>
<defs>
<clipPath id="clip0_382_1631">
<rect width="36" height="36" fill="white"/>
</clipPath>
</defs>
</svg>
