<svg width="36" height="36" viewBox="0 0 36 36" fill="none" xmlns="http://www.w3.org/2000/svg">
<circle cx="18" cy="18" r="18" fill="#C5AD7F"/>
<path d="M18.0141 8H17.9856C14.5316 8 11.7217 10.809 11.7217 14.2616C11.7217 16.5248 12.7524 19.5117 14.7851 23.1394C16.2922 25.8289 17.8204 27.8888 17.8357 27.9092C17.8783 27.9664 17.9453 28 18.0164 28C18.0184 28 18.0204 28 18.0225 28C18.0958 27.9979 18.1634 27.9604 18.2041 27.8993C18.2191 27.8765 19.7365 25.5852 21.2333 22.7826C23.2537 19 24.2781 16.1331 24.2781 14.2616C24.2779 10.8089 21.468 8 18.0141 8ZM20.9054 14.4146C20.9054 16.0168 19.602 17.3202 17.9998 17.3202C16.3976 17.3202 15.0942 16.0168 15.0942 14.4146C15.0942 12.8125 16.3976 11.509 17.9998 11.509C19.602 11.509 20.9054 12.8125 20.9054 14.4146Z" fill="#2A2F4F"/>
<circle cx="17.9998" cy="14.6666" r="3.33333" fill="#C5AD7F"/>
</svg>
