<svg width="24" height="24" viewBox="0 0 24 24" fill="none" xmlns="http://www.w3.org/2000/svg">
<circle cx="12" cy="12" r="12" fill="#C5AD7F"/>
<path d="M15.0372 12.9678H16.7618C17.7391 12.9678 18.4864 13.718 18.4864 15.0373M6.06946 16.417C6.06946 14.8492 7.22838 13.6577 8.55286 13.6577H11.8641C13.2437 13.6577 14.3475 14.9119 14.3475 16.417M17.2979 7.94784C17.9628 8.61274 17.9628 9.73476 17.2979 10.3997C16.633 11.0646 15.511 11.0646 14.8461 10.3997C14.1812 9.73476 14.1812 8.61274 14.8461 7.94784C15.511 7.28294 16.5915 7.28294 17.2979 7.94784ZM11.6795 8.04757C12.4774 8.84545 12.4774 10.1919 11.6795 10.9898C10.8817 11.7876 9.53524 11.7876 8.73737 10.9898C7.93949 10.1919 7.93949 8.84545 8.73737 8.04757C9.53524 7.2497 10.8318 7.2497 11.6795 8.04757Z" stroke="#2A2F4F" stroke-width="2" stroke-linecap="round" stroke-linejoin="round"/>
</svg>
