<svg width="36" height="36" viewBox="0 0 36 36" fill="none" xmlns="http://www.w3.org/2000/svg">
<path d="M18 25.2C21.9764 25.2 25.2 21.9764 25.2 18C25.2 14.0235 21.9764 10.8 18 10.8V25.2Z" fill="#C5AD7F"/>
<path fill-rule="evenodd" clip-rule="evenodd" d="M18 0C8.05887 0 0 8.05887 0 18C0 27.941 8.05887 36 18 36C27.941 36 36 27.941 36 18C36 8.05887 27.941 0 18 0ZM18 2V10.8C14.0235 10.8 10.8 14.0235 10.8 18C10.8 21.9764 14.0235 25.2 18 25.2V34C25.9529 34 34 25.9529 34 18C34 10.0471 25.9529 2 18 2Z" fill="#C5AD7F"/>
</svg>
