<svg width="24" height="24" viewBox="0 0 24 24" fill="none" xmlns="http://www.w3.org/2000/svg">
<circle cx="12" cy="12" r="12" fill="#2A2F4F"/>
<path d="M15.0372 12.9678H16.7618C17.7391 12.9678 18.4864 13.718 18.4864 15.0373" stroke="#C5AD7F" stroke-width="2" stroke-linecap="round" stroke-linejoin="round"/>
<path d="M17.298 7.9478C17.9629 8.6127 17.9629 9.73472 17.298 10.3996C16.6331 11.0645 15.511 11.0645 14.8461 10.3996C14.1812 9.73472 14.1812 8.6127 14.8461 7.9478C15.511 7.2829 16.5915 7.2829 17.298 7.9478" stroke="#C5AD7F" stroke-width="2" stroke-linecap="round" stroke-linejoin="round"/>
<path d="M6.06946 16.417C6.06946 14.8492 7.22838 13.6576 8.55286 13.6576H11.8641C13.2437 13.6576 14.3475 14.9119 14.3475 16.417" stroke="#C5AD7F" stroke-width="2" stroke-linecap="round" stroke-linejoin="round"/>
<path d="M11.6796 8.04754C12.4774 8.84542 12.4774 10.1918 11.6796 10.9897C10.8817 11.7876 9.53527 11.7876 8.73739 10.9897C7.93951 10.1918 7.93951 8.84542 8.73739 8.04754C9.53527 7.24966 10.8318 7.24966 11.6796 8.04754" stroke="#C5AD7F" stroke-width="2" stroke-linecap="round" stroke-linejoin="round"/>
</svg>
