<svg width="24" height="24" viewBox="0 0 24 24" fill="none" xmlns="http://www.w3.org/2000/svg">
<path d="M9.38705 3.38175C9.00921 4.62378 8.90454 5.93284 9.08023 7.21913C9.25592 8.50541 9.70781 9.73846 10.4049 10.8337C11.102 11.9289 12.0277 12.8603 13.1187 13.5641C14.2096 14.2678 15.4399 14.7272 16.725 14.9108C17.1475 14.9699 17.5735 14.9997 18.0001 15C18.8868 15.0013 19.7688 14.8714 20.6175 14.6145C20.1055 16.2711 19.1297 17.7463 17.8054 18.8656C16.4812 19.9849 14.864 20.7013 13.1453 20.9302C12.7653 20.9765 12.3829 20.9998 12.0001 21C9.83851 21.0047 7.74747 20.2313 6.1092 18.8212C4.47093 17.4112 3.39488 15.4585 3.07777 13.3204C2.76065 11.1822 3.22366 9.00136 4.38214 7.17647C5.54062 5.35159 7.31718 4.0046 9.38705 3.38175ZM12.0001 0C11.4452 0.000262682 10.8909 0.0378475 10.3411 0.1125C7.32747 0.528049 4.58419 2.07264 2.6661 4.43385C0.748021 6.79506 -0.201688 9.79663 0.00908009 12.8314C0.219848 15.8662 1.57536 18.7077 3.80143 20.7811C6.0275 22.8545 8.95796 24.005 12.0001 24C12.504 23.9999 13.0074 23.9691 13.5076 23.9078C16.1214 23.5722 18.5528 22.3877 20.4281 20.5361C22.3034 18.6845 23.5188 16.2684 23.8876 13.659C23.9641 13.0953 24.0017 12.5269 24.0001 11.958C23.9988 11.7633 23.9588 11.5709 23.8825 11.3918C23.8062 11.2127 23.6949 11.0506 23.5553 10.9149C23.4158 10.7792 23.2506 10.6727 23.0694 10.6014C22.8882 10.5302 22.6947 10.4957 22.5001 10.5C22.1671 10.5004 21.8433 10.6092 21.5776 10.8098C20.5454 11.5834 19.29 12.0011 18.0001 12C17.7115 11.9999 17.4233 11.9798 17.1376 11.94C16.1082 11.7917 15.1351 11.3783 14.3138 10.7403C13.4925 10.1023 12.8513 9.26168 12.4531 8.30096C12.0549 7.34023 11.9134 6.29246 12.0425 5.26053C12.1716 4.2286 12.5669 3.24799 13.1896 2.415C13.342 2.19159 13.4333 1.93214 13.4542 1.66248C13.4752 1.39282 13.4252 1.12237 13.3091 0.878078C13.193 0.633781 13.015 0.424162 12.7926 0.270101C12.5703 0.11604 12.3115 0.0229141 12.042 0L12.0001 0Z" fill="#2A2F4F"/>
</svg>
