<svg width="24" height="24" viewBox="0 0 24 24" fill="none" xmlns="http://www.w3.org/2000/svg">
<circle cx="12" cy="12" r="12" fill="#2A2F4F"/>
<path fill-rule="evenodd" clip-rule="evenodd" d="M13.8781 6.77792C14.9153 7.81516 14.9153 9.49684 13.8781 10.5341C12.8408 11.5713 11.1592 11.5713 10.1219 10.5341C9.08469 9.49684 9.08469 7.81516 10.1219 6.77792C11.1592 5.74069 12.8408 5.74069 13.8781 6.77792" fill="#C5AD7F"/>
<path fill-rule="evenodd" clip-rule="evenodd" d="M12 13.3387C15.036 13.3387 18 14.65 18 16.6667V17.3333C18 17.7013 17.7013 18 17.3333 18H6.66667C6.29867 18 6 17.7013 6 17.3333V16.6667C6 14.6493 8.964 13.3387 12 13.3387" fill="#C5AD7F"/>
</svg>
